<svg xmlns="http://www.w3.org/2000/svg" xmlns:xlink="http://www.w3.org/1999/xlink" width="40" zoomAndPan="magnify" viewBox="0 0 30 30.000001" height="40" preserveAspectRatio="xMidYMid meet" version="1.0"><defs><clipPath id="218fd04562"><path d="M 5.351562 2.980469 L 24.945312 2.980469 L 24.945312 26.207031 L 5.351562 26.207031 Z M 5.351562 2.980469 " clip-rule="nonzero"/></clipPath></defs><g clip-path="url(#218fd04562)"><path fill="#0381ae" d="M 5.351562 2.980469 L 7.308594 23.304688 L 15.148438 26.207031 L 22.984375 23.304688 L 24.945312 2.980469 Z M 8.617188 5.882812 L 21.664062 5.882812 L 21.410156 8.785156 L 15.828125 11.691406 L 21.148438 11.691406 L 20.644531 17.503906 L 20.664062 17.496094 L 20.394531 20.398438 L 15.148438 22.335938 L 9.890625 20.398438 L 9.566406 16.527344 L 12.527344 16.527344 L 12.679688 18.496094 L 15.148438 19.339844 L 17.617188 18.511719 L 17.957031 14.59375 L 9.398438 14.59375 L 9.144531 11.691406 L 14.9375 8.785156 L 8.886719 8.785156 Z M 8.617188 5.882812 " fill-opacity="1" fill-rule="nonzero"/></g></svg>