<svg xmlns="http://www.w3.org/2000/svg" xmlns:xlink="http://www.w3.org/1999/xlink" width="40" zoomAndPan="magnify" viewBox="0 0 30 30.000001" height="40" preserveAspectRatio="xMidYMid meet" version="1.0"><defs><clipPath id="872c9a7b63"><path d="M 5.074219 3.378906 L 24.671875 3.378906 L 24.671875 25.878906 L 5.074219 25.878906 Z M 5.074219 3.378906 " clip-rule="nonzero"/></clipPath></defs><g clip-path="url(#872c9a7b63)"><path fill="#0381ae" d="M 24.5625 3.566406 C 24.472656 3.464844 24.34375 3.410156 24.210938 3.410156 L 5.582031 3.410156 C 5.445312 3.410156 5.320312 3.464844 5.230469 3.566406 C 5.136719 3.667969 5.09375 3.804688 5.105469 3.941406 L 6.785156 23.171875 C 6.800781 23.375 6.9375 23.542969 7.128906 23.597656 L 14.761719 25.828125 C 14.804688 25.839844 14.847656 25.847656 14.894531 25.847656 C 14.9375 25.847656 14.980469 25.839844 15.023438 25.828125 L 22.664062 23.597656 C 22.855469 23.542969 22.992188 23.375 23.007812 23.171875 L 24.6875 3.941406 C 24.699219 3.804688 24.652344 3.667969 24.5625 3.566406 Z M 20.542969 10.199219 L 11.574219 10.199219 L 11.789062 12.679688 L 20.328125 12.679688 L 19.6875 20.019531 L 14.894531 21.5 L 14.84375 21.488281 L 10.105469 20.015625 L 9.847656 17.027344 L 12.167969 17.027344 L 12.269531 18.1875 L 14.917969 18.757812 L 17.519531 18.1875 L 17.796875 15.046875 L 9.671875 15.046875 L 9.042969 7.824219 L 20.753906 7.824219 Z M 20.542969 10.199219 " fill-opacity="1" fill-rule="nonzero"/></g></svg>