<svg xmlns="http://www.w3.org/2000/svg" xmlns:xlink="http://www.w3.org/1999/xlink" width="40" zoomAndPan="magnify" viewBox="0 0 30 30.000001" height="40" preserveAspectRatio="xMidYMid meet" version="1.0"><defs><clipPath id="30556d2f6c"><path d="M 3.386719 2.902344 L 26.613281 2.902344 L 26.613281 26.128906 L 3.386719 26.128906 Z M 3.386719 2.902344 " clip-rule="nonzero"/></clipPath></defs><g clip-path="url(#30556d2f6c)"><path fill="#0381ae" d="M 25.140625 2.902344 L 4.863281 2.902344 C 4.046875 2.902344 3.386719 3.5625 3.386719 4.378906 L 3.386719 24.652344 C 3.386719 25.46875 4.046875 26.128906 4.863281 26.128906 L 25.136719 26.128906 C 25.953125 26.128906 26.613281 25.46875 26.613281 24.65625 L 26.613281 4.378906 C 26.613281 3.5625 25.953125 2.902344 25.140625 2.902344 Z M 16.105469 20.699219 C 16.105469 22.910156 14.808594 23.917969 12.917969 23.917969 C 11.207031 23.917969 9.972656 22.769531 9.46875 21.703125 L 11.207031 20.652344 C 11.542969 21.246094 12.054688 21.703125 12.789062 21.703125 C 13.488281 21.703125 13.894531 21.429688 13.894531 20.363281 L 13.894531 13.410156 L 16.105469 13.410156 Z M 20.902344 23.917969 C 18.945312 23.917969 17.832031 22.929688 17.210938 21.703125 L 18.871094 20.597656 C 19.324219 21.335938 19.816406 22.042969 20.855469 22.042969 C 21.730469 22.042969 22.1875 21.609375 22.1875 21.003906 C 22.1875 20.28125 21.714844 20.023438 20.753906 19.601562 L 20.226562 19.375 C 18.703125 18.726562 17.6875 17.917969 17.6875 16.195312 C 17.6875 14.617188 18.898438 13.410156 20.78125 13.410156 C 22.121094 13.410156 23.085938 13.875 23.78125 15.097656 L 22.140625 16.15625 C 21.777344 15.503906 21.386719 15.25 20.78125 15.25 C 20.164062 15.25 19.773438 15.644531 19.773438 16.15625 C 19.773438 16.789062 20.164062 17.042969 21.066406 17.4375 L 21.59375 17.664062 C 23.390625 18.429688 24.402344 19.214844 24.402344 20.976562 C 24.402344 22.875 22.910156 23.917969 20.902344 23.917969 Z M 20.902344 23.917969 " fill-opacity="1" fill-rule="nonzero"/></g></svg>