<svg xmlns="http://www.w3.org/2000/svg" xmlns:xlink="http://www.w3.org/1999/xlink" width="40" zoomAndPan="magnify" viewBox="0 0 30 30.000001" height="40" preserveAspectRatio="xMidYMid meet" version="1.0"><defs><clipPath id="cd1e4f01ce"><path d="M 3.386719 4 L 26.613281 4 L 26.613281 24.925781 L 3.386719 24.925781 Z M 3.386719 4 " clip-rule="nonzero"/></clipPath></defs><path fill="#0381ae" d="M 15 12.296875 C 13.851562 12.296875 12.921875 13.214844 12.921875 14.351562 C 12.921875 15.488281 13.851562 16.40625 15 16.40625 C 16.148438 16.40625 17.078125 15.488281 17.078125 14.351562 C 17.078125 13.214844 16.148438 12.296875 15 12.296875 Z M 15 12.296875 " fill-opacity="1" fill-rule="nonzero"/><g clip-path="url(#cd1e4f01ce)"><path fill="#0381ae" d="M 7.753906 17.992188 C 7.960938 18.058594 8.164062 18.125 8.371094 18.183594 C 8.304688 18.453125 8.246094 18.71875 8.191406 18.992188 C 7.714844 21.484375 8.085938 23.457031 9.273438 24.136719 C 10.5 24.835938 12.558594 24.117188 14.566406 22.382812 C 14.722656 22.242188 14.882812 22.097656 15.039062 21.945312 C 15.238281 22.140625 15.449219 22.324219 15.65625 22.5 C 17.597656 24.152344 19.515625 24.820312 20.703125 24.144531 C 21.925781 23.445312 22.324219 21.320312 21.808594 18.738281 C 21.769531 18.539062 21.722656 18.335938 21.671875 18.132812 C 21.816406 18.089844 21.957031 18.046875 22.097656 18 C 24.71875 17.144531 26.613281 15.757812 26.613281 14.332031 C 26.613281 12.972656 24.824219 11.65625 22.359375 10.816406 L 22.359375 10.8125 C 22.113281 10.734375 21.867188 10.65625 21.625 10.585938 C 21.664062 10.421875 21.699219 10.253906 21.738281 10.085938 C 22.292969 7.414062 21.925781 5.265625 20.6875 4.554688 C 19.496094 3.875 17.550781 4.582031 15.582031 6.277344 C 15.386719 6.445312 15.195312 6.617188 15.011719 6.792969 C 14.890625 6.675781 14.765625 6.5625 14.636719 6.449219 C 12.574219 4.636719 10.503906 3.871094 9.265625 4.585938 C 8.078125 5.269531 7.722656 7.292969 8.222656 9.824219 C 8.273438 10.074219 8.328125 10.320312 8.390625 10.570312 C 8.101562 10.652344 7.816406 10.742188 7.546875 10.835938 C 5.125 11.667969 3.386719 12.976562 3.386719 14.332031 C 3.386719 15.734375 5.238281 17.136719 7.753906 17.992188 Z M 13.925781 21.648438 C 13.175781 22.324219 12.308594 22.863281 11.367188 23.230469 C 10.863281 23.46875 10.28125 23.492188 9.765625 23.289062 C 9.042969 22.878906 8.742188 21.292969 9.152344 19.160156 C 9.203125 18.910156 9.257812 18.660156 9.320312 18.410156 C 10.335938 18.628906 11.359375 18.777344 12.398438 18.851562 C 13 19.691406 13.65625 20.492188 14.359375 21.246094 C 14.214844 21.386719 14.070312 21.519531 13.925781 21.648438 Z M 19.6875 13.21875 C 19.472656 12.824219 19.253906 12.429688 19.027344 12.042969 C 18.804688 11.664062 18.574219 11.285156 18.332031 10.914062 C 19.066406 11.003906 19.761719 11.125 20.417969 11.273438 C 20.207031 11.9375 19.960938 12.582031 19.6875 13.21875 Z M 19.695312 15.457031 C 19.984375 16.105469 20.238281 16.765625 20.460938 17.445312 C 19.757812 17.601562 19.046875 17.722656 18.328125 17.800781 C 18.574219 17.425781 18.804688 17.039062 19.03125 16.652344 C 19.265625 16.257812 19.480469 15.859375 19.695312 15.457031 Z M 19.171875 14.339844 C 18.867188 14.957031 18.539062 15.566406 18.191406 16.167969 C 17.847656 16.765625 17.476562 17.34375 17.09375 17.917969 C 16.417969 17.96875 15.714844 17.992188 15 17.992188 C 14.289062 17.992188 13.601562 17.96875 12.933594 17.929688 C 12.539062 17.359375 12.167969 16.773438 11.816406 16.179688 C 11.46875 15.582031 11.144531 14.976562 10.84375 14.355469 L 10.839844 14.355469 C 11.140625 13.738281 11.464844 13.128906 11.8125 12.535156 C 12.15625 11.9375 12.527344 11.359375 12.917969 10.789062 C 13.597656 10.738281 14.292969 10.710938 15 10.710938 C 15.710938 10.710938 16.40625 10.738281 17.082031 10.789062 C 17.46875 11.355469 17.835938 11.933594 18.1875 12.523438 C 18.535156 13.117188 18.859375 13.722656 19.171875 14.339844 Z M 10.964844 12.054688 C 10.742188 12.433594 10.527344 12.824219 10.320312 13.21875 C 10.035156 12.550781 9.796875 11.894531 9.597656 11.261719 C 10.25 11.121094 10.941406 11.003906 11.664062 10.914062 C 11.425781 11.285156 11.1875 11.667969 10.964844 12.054688 Z M 10.324219 15.492188 C 10.53125 15.886719 10.746094 16.277344 10.972656 16.664062 C 11.203125 17.054688 11.4375 17.445312 11.6875 17.824219 C 10.980469 17.75 10.277344 17.636719 9.582031 17.488281 C 9.78125 16.839844 10.03125 16.171875 10.324219 15.492188 Z M 15.035156 20.554688 C 14.574219 20.0625 14.113281 19.515625 13.664062 18.925781 C 14.097656 18.945312 14.546875 18.953125 15 18.953125 C 15.46875 18.953125 15.925781 18.945312 16.378906 18.921875 C 15.964844 19.492188 15.515625 20.035156 15.035156 20.554688 Z M 20.964844 21.90625 C 20.925781 22.449219 20.652344 22.960938 20.21875 23.308594 C 19.496094 23.71875 17.957031 23.183594 16.296875 21.773438 C 16.105469 21.609375 15.917969 21.4375 15.722656 21.257812 C 16.414062 20.5 17.054688 19.695312 17.636719 18.851562 C 18.675781 18.765625 19.710938 18.609375 20.730469 18.382812 C 20.777344 18.566406 20.816406 18.75 20.851562 18.929688 C 21.074219 19.898438 21.109375 20.90625 20.964844 21.90625 Z M 21.359375 11.511719 C 21.597656 11.578125 21.824219 11.648438 22.039062 11.722656 C 24.152344 12.4375 25.636719 13.507812 25.636719 14.324219 C 25.636719 15.203125 24.054688 16.339844 21.789062 17.078125 C 21.664062 17.121094 21.535156 17.160156 21.40625 17.195312 C 21.089844 16.21875 20.699219 15.261719 20.25 14.332031 C 20.683594 13.417969 21.050781 12.476562 21.359375 11.511719 Z M 16.21875 7.003906 C 17.90625 5.550781 19.480469 4.980469 20.199219 5.390625 C 20.964844 5.824219 21.261719 7.585938 20.78125 9.894531 C 20.746094 10.046875 20.714844 10.195312 20.675781 10.34375 C 19.667969 10.121094 18.648438 9.957031 17.621094 9.867188 C 17.03125 9.03125 16.386719 8.234375 15.6875 7.484375 C 15.867188 7.320312 16.039062 7.160156 16.21875 7.003906 Z M 15.007812 8.171875 C 15.484375 8.683594 15.933594 9.222656 16.351562 9.777344 C 15.453125 9.738281 14.550781 9.738281 13.652344 9.777344 C 14.097656 9.199219 14.554688 8.660156 15.007812 8.171875 Z M 9.746094 5.421875 C 10.507812 4.980469 12.203125 5.609375 13.984375 7.171875 C 14.097656 7.269531 14.210938 7.378906 14.328125 7.484375 C 13.625 8.234375 12.976562 9.03125 12.382812 9.867188 C 11.355469 9.957031 10.339844 10.113281 9.332031 10.335938 C 9.273438 10.105469 9.226562 9.871094 9.175781 9.640625 C 8.75 7.464844 9.03125 5.828125 9.746094 5.421875 Z M 7.863281 11.746094 C 8.125 11.65625 8.386719 11.578125 8.648438 11.5 C 8.957031 12.476562 9.328125 13.429688 9.761719 14.355469 C 9.324219 15.292969 8.949219 16.261719 8.636719 17.25 C 8.445312 17.195312 8.257812 17.136719 8.074219 17.074219 C 7.105469 16.773438 6.007812 16.296875 5.214844 15.675781 C 4.757812 15.359375 4.449219 14.875 4.363281 14.332031 C 4.363281 13.511719 5.796875 12.460938 7.863281 11.746094 Z M 7.863281 11.746094 " fill-opacity="1" fill-rule="nonzero"/></g></svg>