<svg xmlns="http://www.w3.org/2000/svg" xmlns:xlink="http://www.w3.org/1999/xlink" width="40" zoomAndPan="magnify" viewBox="0 0 30 30.000001" height="40" preserveAspectRatio="xMidYMid meet" version="1.0"><defs><clipPath id="b9bf31609f"><path d="M 3.386719 4.746094 L 26.613281 4.746094 L 26.613281 24.34375 L 3.386719 24.34375 Z M 3.386719 4.746094 " clip-rule="nonzero"/></clipPath></defs><g clip-path="url(#b9bf31609f)"><path fill="#762190" d="M 26.378906 20.777344 L 25.667969 19.996094 C 25.773438 19.414062 25.835938 18.808594 25.84375 18.199219 C 25.847656 18.136719 25.847656 18.070312 25.847656 18.007812 C 25.847656 16.226562 25.417969 14.460938 24.601562 12.894531 C 23.265625 10.328125 20.949219 8.382812 18.222656 7.523438 C 18.652344 6.449219 18.203125 5.578125 17.53125 5.175781 C 16.8125 4.742188 15.746094 4.800781 15 5.691406 C 14.253906 4.800781 13.1875 4.742188 12.46875 5.175781 C 11.796875 5.582031 11.347656 6.449219 11.78125 7.523438 C 9.050781 8.378906 6.734375 10.328125 5.398438 12.894531 C 4.585938 14.460938 4.152344 16.226562 4.152344 18.007812 C 4.152344 18.070312 4.152344 18.136719 4.15625 18.195312 C 4.167969 18.808594 4.226562 19.414062 4.335938 19.996094 L 3.621094 20.78125 C 3.476562 20.941406 3.402344 21.160156 3.421875 21.378906 C 3.441406 21.597656 3.546875 21.796875 3.722656 21.933594 C 4.050781 22.195312 4.535156 22.144531 4.832031 21.824219 C 5.132812 22.640625 5.523438 23.410156 5.992188 24.117188 L 5.992188 24.148438 C 5.992188 24.25 6.074219 24.335938 6.175781 24.335938 C 6.183594 24.335938 6.191406 24.332031 6.199219 24.328125 C 6.210938 24.332031 6.222656 24.335938 6.234375 24.335938 L 23.769531 24.335938 C 23.78125 24.335938 23.792969 24.332031 23.804688 24.328125 C 23.8125 24.332031 23.816406 24.335938 23.824219 24.335938 C 23.925781 24.335938 24.007812 24.25 24.007812 24.148438 L 24.007812 24.117188 C 24.480469 23.402344 24.871094 22.632812 25.167969 21.824219 C 25.335938 22.007812 25.566406 22.101562 25.792969 22.101562 C 25.964844 22.101562 26.136719 22.046875 26.277344 21.933594 C 26.453125 21.796875 26.5625 21.597656 26.582031 21.378906 C 26.597656 21.160156 26.527344 20.941406 26.378906 20.777344 Z M 18.058594 7.859375 C 20.617188 8.652344 22.808594 10.433594 24.125 12.796875 L 23.414062 12.796875 C 23.042969 12.554688 22.617188 12.421875 22.171875 12.421875 C 21.726562 12.421875 21.296875 12.554688 20.925781 12.796875 L 19.945312 12.796875 C 19.421875 11.070312 18.703125 9.539062 17.8125 8.238281 C 17.90625 8.117188 17.988281 7.988281 18.058594 7.859375 Z M 14.917969 10.3125 C 14.945312 10.324219 14.972656 10.328125 15 10.328125 C 15.027344 10.328125 15.054688 10.324219 15.082031 10.3125 C 16.171875 9.765625 17.003906 9.171875 17.566406 8.535156 C 18.394531 9.757812 19.0625 11.1875 19.558594 12.796875 L 16.246094 12.796875 C 15.875 12.554688 15.445312 12.421875 15 12.421875 C 14.554688 12.421875 14.128906 12.554688 13.757812 12.796875 L 10.441406 12.796875 C 10.9375 11.1875 11.609375 9.757812 12.433594 8.535156 C 12.996094 9.171875 13.828125 9.765625 14.917969 10.3125 Z M 11.941406 7.859375 C 12.015625 7.988281 12.097656 8.117188 12.1875 8.238281 C 11.296875 9.539062 10.578125 11.070312 10.054688 12.796875 L 9.074219 12.796875 C 8.703125 12.554688 8.277344 12.421875 7.832031 12.421875 C 7.386719 12.421875 6.957031 12.554688 6.585938 12.796875 L 5.875 12.796875 C 7.195312 10.433594 9.382812 8.652344 11.941406 7.859375 Z M 4.648438 19.652344 C 4.585938 19.234375 4.546875 18.808594 4.53125 18.378906 L 5.808594 18.378906 Z M 5.992188 23.421875 C 5.636719 22.820312 5.34375 22.179688 5.113281 21.515625 L 5.992188 20.53125 Z M 9.167969 17.757812 C 9.019531 17.667969 8.863281 17.597656 8.699219 17.554688 C 8.152344 17.414062 7.507812 17.414062 6.960938 17.554688 C 6.667969 17.632812 6.390625 17.792969 6.164062 18.007812 L 4.523438 18.007812 C 4.523438 16.324219 4.921875 14.65625 5.675781 13.167969 L 6.148438 13.167969 C 5.757812 13.59375 5.53125 14.15625 5.53125 14.75 C 5.53125 16.03125 6.5625 17.074219 7.832031 17.074219 C 8.363281 17.074219 8.875 16.886719 9.277344 16.554688 C 9.230469 16.957031 9.195312 17.359375 9.167969 17.757812 Z M 9.945312 13.167969 C 9.902344 13.308594 9.867188 13.453125 9.828125 13.597656 C 9.738281 13.445312 9.632812 13.300781 9.511719 13.167969 Z M 13.164062 23.960938 L 9.667969 23.960938 L 9.667969 20.53125 L 10.816406 21.816406 C 10.988281 22.003906 11.222656 22.101562 11.453125 22.101562 C 11.625 22.101562 11.796875 22.046875 11.9375 21.9375 C 12.039062 21.859375 12.113281 21.757812 12.164062 21.644531 L 13.164062 20.53125 Z M 9.851562 18.378906 L 12.980469 18.378906 L 11.414062 20.09375 Z M 20.332031 23.960938 L 16.839844 23.960938 L 16.839844 20.53125 L 17.988281 21.816406 C 18.15625 22.003906 18.390625 22.101562 18.621094 22.101562 C 18.796875 22.101562 18.964844 22.046875 19.105469 21.9375 C 19.207031 21.859375 19.28125 21.757812 19.335938 21.648438 L 20.332031 20.53125 Z M 17.023438 18.378906 L 20.148438 18.378906 L 18.585938 20.09375 Z M 16.667969 18.007812 C 16.433594 17.789062 16.160156 17.632812 15.867188 17.554688 C 15.324219 17.414062 14.679688 17.414062 14.132812 17.554688 C 13.835938 17.632812 13.5625 17.792969 13.332031 18.007812 L 9.523438 18.007812 C 9.558594 17.371094 9.617188 16.726562 9.707031 16.085938 C 9.984375 15.691406 10.128906 15.234375 10.128906 14.75 C 10.128906 14.5625 10.101562 14.375 10.058594 14.195312 C 10.144531 13.824219 10.234375 13.488281 10.328125 13.167969 L 13.320312 13.167969 C 12.925781 13.59375 12.703125 14.15625 12.703125 14.75 C 12.703125 16.03125 13.734375 17.074219 15 17.074219 C 16.269531 17.074219 17.296875 16.03125 17.296875 14.75 C 17.296875 14.15625 17.074219 13.59375 16.683594 13.167969 L 19.675781 13.167969 C 19.769531 13.492188 19.855469 13.828125 19.941406 14.191406 C 19.898438 14.375 19.871094 14.5625 19.871094 14.75 C 19.871094 15.234375 20.019531 15.695312 20.292969 16.089844 C 20.382812 16.726562 20.445312 17.371094 20.476562 18.007812 Z M 20.175781 13.597656 C 20.136719 13.453125 20.097656 13.308594 20.058594 13.167969 L 20.488281 13.167969 C 20.367188 13.300781 20.261719 13.441406 20.175781 13.597656 Z M 24.007812 23.421875 L 24.007812 20.53125 L 24.890625 21.511719 C 24.660156 22.175781 24.363281 22.8125 24.007812 23.421875 Z M 25.351562 19.652344 L 24.191406 18.378906 L 25.46875 18.378906 C 25.457031 18.808594 25.417969 19.234375 25.351562 19.652344 Z M 23.835938 18.007812 C 23.605469 17.789062 23.332031 17.632812 23.039062 17.554688 C 22.492188 17.414062 21.847656 17.414062 21.300781 17.554688 C 21.136719 17.597656 20.980469 17.667969 20.832031 17.757812 C 20.804688 17.359375 20.769531 16.957031 20.722656 16.554688 C 21.128906 16.886719 21.640625 17.074219 22.171875 17.074219 C 23.4375 17.074219 24.46875 16.03125 24.46875 14.75 C 24.46875 14.15625 24.242188 13.59375 23.851562 13.167969 L 24.324219 13.167969 C 25.078125 14.65625 25.480469 16.324219 25.480469 18.007812 Z M 23.835938 18.007812 " fill-opacity="1" fill-rule="nonzero"/></g></svg>