<svg xmlns="http://www.w3.org/2000/svg" xmlns:xlink="http://www.w3.org/1999/xlink" width="40" zoomAndPan="magnify" viewBox="0 0 30 30.000001" height="40" preserveAspectRatio="xMidYMid meet" version="1.0"><defs><clipPath id="f404a53ad1"><path d="M 4.941406 2.902344 L 25.261719 2.902344 L 25.261719 26.128906 L 4.941406 26.128906 Z M 4.941406 2.902344 " clip-rule="nonzero"/></clipPath></defs><path fill="#762190" d="M 13.207031 8.015625 C 13.496094 7.726562 13.878906 7.5625 14.289062 7.5625 C 14.695312 7.5625 15.078125 7.722656 15.363281 8.011719 L 15.609375 8.261719 C 15.683594 8.335938 15.785156 8.378906 15.890625 8.378906 C 15.996094 8.378906 16.097656 8.335938 16.167969 8.261719 L 16.414062 8.011719 C 16.992188 7.433594 17.992188 7.433594 18.570312 8.011719 C 18.863281 8.308594 19.023438 8.695312 19.023438 9.109375 C 19.023438 9.523438 18.863281 9.914062 18.570312 10.207031 L 15.890625 12.90625 L 13.25 10.246094 C 12.640625 9.628906 12.621094 8.609375 13.207031 8.015625 Z M 15.441406 13.554688 C 15.558594 13.675781 15.71875 13.742188 15.890625 13.742188 C 16.058594 13.742188 16.21875 13.675781 16.339844 13.554688 L 19.125 10.746094 C 19.5625 10.308594 19.800781 9.726562 19.800781 9.109375 C 19.800781 8.492188 19.5625 7.910156 19.125 7.472656 C 18.691406 7.03125 18.109375 6.792969 17.492188 6.792969 C 16.890625 6.792969 16.324219 7.019531 15.890625 7.441406 C 15.457031 7.023438 14.890625 6.792969 14.289062 6.792969 C 13.667969 6.792969 13.085938 7.035156 12.648438 7.476562 C 11.773438 8.363281 11.792969 9.878906 12.691406 10.789062 L 15.441406 13.554688 " fill-opacity="1" fill-rule="nonzero"/><g clip-path="url(#f404a53ad1)"><path fill="#762190" d="M 8.058594 10.097656 C 7.824219 9.886719 7.738281 9.554688 7.84375 9.273438 C 9.078125 5.941406 12.3125 3.703125 15.902344 3.703125 C 20.632812 3.703125 24.484375 7.515625 24.484375 12.199219 C 24.484375 14.628906 23.429688 16.941406 21.59375 18.554688 C 21.585938 18.558594 21.578125 18.566406 21.570312 18.574219 C 21.136719 18.957031 20.65625 19.296875 20.140625 19.585938 C 19.953125 19.691406 19.890625 19.929688 19.996094 20.113281 C 20.066406 20.238281 20.199219 20.308594 20.332031 20.308594 C 20.398438 20.308594 20.464844 20.292969 20.527344 20.257812 C 20.859375 20.070312 21.171875 19.859375 21.472656 19.636719 L 21.746094 25.328125 L 12.390625 25.328125 L 12.390625 22.625 C 12.390625 22.1875 12.238281 21.792969 11.988281 21.46875 L 14.769531 21.46875 C 15.601562 21.46875 16.386719 21.144531 16.976562 20.5625 L 17.347656 20.195312 C 17.5 20.042969 17.5 19.800781 17.347656 19.648438 C 17.191406 19.5 16.945312 19.5 16.792969 19.648438 L 16.425781 20.015625 C 15.988281 20.445312 15.382812 20.695312 14.769531 20.695312 L 8.167969 20.695312 C 7.742188 20.695312 7.382812 20.414062 7.328125 20.042969 C 7.289062 19.765625 7.394531 19.5 7.609375 19.324219 C 8.054688 18.957031 8.027344 18.253906 7.542969 17.933594 C 7.734375 17.742188 7.808594 17.472656 7.746094 17.207031 C 7.683594 16.945312 7.492188 16.738281 7.234375 16.65625 L 7.015625 16.589844 C 7.136719 16.0625 7.113281 15.617188 7.058594 15.296875 C 7.324219 15.320312 7.5625 15.472656 7.683594 15.714844 L 7.75 15.847656 C 7.820312 15.980469 7.957031 16.0625 8.101562 16.0625 C 8.160156 16.0625 8.21875 16.046875 8.273438 16.019531 C 8.46875 15.925781 8.546875 15.691406 8.449219 15.5 L 8.382812 15.371094 C 8.117188 14.84375 7.582031 14.515625 6.988281 14.515625 L 5.761719 14.515625 L 8.175781 11.207031 C 8.28125 11.0625 8.335938 10.894531 8.335938 10.71875 C 8.335938 10.484375 8.234375 10.257812 8.058594 10.097656 Z M 5.128906 14.0625 C 4.953125 14.296875 4.929688 14.605469 5.066406 14.867188 C 5.199219 15.128906 5.464844 15.289062 5.761719 15.289062 L 6.261719 15.289062 C 6.320312 15.515625 6.371094 15.90625 6.253906 16.417969 C 6.167969 16.804688 6.386719 17.1875 6.765625 17.316406 L 6.992188 17.386719 C 6.84375 17.53125 6.761719 17.726562 6.761719 17.933594 C 6.761719 18.195312 6.894531 18.433594 7.105469 18.570312 C 7.160156 18.605469 7.171875 18.679688 7.117188 18.722656 C 6.6875 19.074219 6.476562 19.605469 6.554688 20.152344 C 6.667969 20.902344 7.359375 21.46875 8.167969 21.46875 L 10.441406 21.46875 C 11.085938 21.46875 11.609375 21.984375 11.609375 22.625 L 11.609375 25.328125 C 11.609375 25.753906 11.960938 26.101562 12.390625 26.101562 L 21.746094 26.101562 C 21.960938 26.101562 22.167969 26.011719 22.316406 25.859375 C 22.460938 25.707031 22.539062 25.5 22.527344 25.289062 L 22.226562 19.027344 C 24.160156 17.277344 25.261719 14.796875 25.261719 12.199219 C 25.261719 7.089844 21.0625 2.929688 15.898438 2.929688 C 11.988281 2.929688 8.457031 5.375 7.109375 9.007812 C 6.898438 9.582031 7.066406 10.25 7.53125 10.667969 C 7.550781 10.6875 7.554688 10.710938 7.554688 10.71875 C 7.554688 10.734375 7.550781 10.746094 7.542969 10.757812 L 5.128906 14.0625 " fill-opacity="1" fill-rule="nonzero"/></g><path fill="#762190" d="M 15.902344 5.25 C 19.128906 5.25 21.753906 7.328125 21.753906 9.882812 C 21.753906 10.847656 21.382812 11.769531 20.679688 12.550781 C 20.617188 12.625 20.582031 12.714844 20.582031 12.808594 L 20.582031 14.902344 C 20.582031 15.328125 20.230469 15.675781 19.800781 15.675781 C 19.371094 15.675781 19.023438 15.328125 19.023438 14.902344 L 19.023438 14.398438 C 19.023438 14.269531 18.957031 14.148438 18.851562 14.078125 C 18.785156 14.035156 18.710938 14.011719 18.632812 14.011719 C 18.582031 14.011719 18.535156 14.019531 18.488281 14.039062 C 17.683594 14.355469 16.8125 14.515625 15.902344 14.515625 C 12.675781 14.515625 10.050781 12.4375 10.050781 9.882812 C 10.050781 7.328125 12.675781 5.25 15.902344 5.25 Z M 15.902344 15.289062 C 16.714844 15.289062 17.5 15.171875 18.242188 14.941406 C 18.261719 15.777344 18.953125 16.445312 19.800781 16.445312 C 20.664062 16.445312 21.363281 15.753906 21.363281 14.902344 L 21.363281 12.953125 C 22.128906 12.050781 22.53125 10.992188 22.53125 9.882812 C 22.53125 6.902344 19.558594 4.476562 15.902344 4.476562 C 12.246094 4.476562 9.269531 6.902344 9.269531 9.882812 C 9.269531 12.863281 12.246094 15.289062 15.902344 15.289062 " fill-opacity="1" fill-rule="nonzero"/><path fill="#762190" d="M 15.121094 10.65625 L 15.511719 10.65625 L 15.511719 11.039062 C 15.511719 11.253906 15.6875 11.425781 15.902344 11.425781 C 16.117188 11.425781 16.292969 11.253906 16.292969 11.039062 L 16.292969 10.65625 L 16.679688 10.65625 C 16.894531 10.65625 17.070312 10.480469 17.070312 10.269531 C 17.070312 10.054688 16.894531 9.882812 16.679688 9.882812 L 16.292969 9.882812 L 16.292969 9.496094 C 16.292969 9.285156 16.117188 9.109375 15.902344 9.109375 C 15.6875 9.109375 15.511719 9.285156 15.511719 9.496094 L 15.511719 9.882812 L 15.121094 9.882812 C 14.90625 9.882812 14.730469 10.054688 14.730469 10.269531 C 14.730469 10.480469 14.90625 10.65625 15.121094 10.65625 " fill-opacity="1" fill-rule="nonzero"/></svg>