<svg xmlns="http://www.w3.org/2000/svg" xmlns:xlink="http://www.w3.org/1999/xlink" width="40" zoomAndPan="magnify" viewBox="0 0 30 30.000001" height="40" preserveAspectRatio="xMidYMid meet" version="1.0"><defs><clipPath id="20535bbb1f"><path d="M 17 3 L 26.613281 3 L 26.613281 11 L 17 11 Z M 17 3 " clip-rule="nonzero"/></clipPath><clipPath id="8939cb5a45"><path d="M 19 14 L 26.613281 14 L 26.613281 22 L 19 22 Z M 19 14 " clip-rule="nonzero"/></clipPath></defs><g clip-path="url(#20535bbb1f)"><path fill="#762190" d="M 19.855469 3.101562 C 21.109375 2.90625 22.246094 3.734375 22.878906 4.742188 C 23.96875 4.601562 25.183594 4.929688 25.84375 5.84375 C 26.605469 6.832031 26.453125 8.335938 25.550781 9.1875 C 24.078125 10.542969 21.851562 10.714844 19.945312 10.515625 C 18.789062 9.242188 17.730469 7.6875 17.617188 5.933594 C 17.511719 4.609375 18.492188 3.261719 19.855469 3.101562 Z M 19.855469 3.101562 " fill-opacity="1" fill-rule="nonzero"/></g><path fill="#762190" d="M 9.234375 11.210938 C 9.28125 10.03125 10.628906 9.148438 11.75 9.5625 C 13.464844 10.105469 15.164062 10.679688 16.867188 11.238281 C 17.695312 11.460938 18.328125 12.25 18.300781 13.105469 C 18.308594 16.242188 18.3125 19.382812 18.296875 22.527344 C 18.320312 24.527344 16.121094 26.128906 14.1875 25.515625 C 12.207031 25.042969 11.167969 22.554688 12.238281 20.839844 C 13.136719 19.175781 15.503906 18.738281 17.015625 19.84375 C 16.996094 18.296875 17.015625 16.746094 17.007812 15.199219 C 14.84375 14.488281 12.679688 13.773438 10.515625 13.0625 C 10.503906 15.410156 10.539062 17.765625 10.496094 20.117188 C 10.429688 22.117188 8.15625 23.605469 6.253906 22.910156 C 4.339844 22.355469 3.398438 19.90625 4.46875 18.238281 C 5.378906 16.601562 7.722656 16.1875 9.222656 17.28125 C 9.226562 15.257812 9.191406 13.234375 9.234375 11.210938 Z M 9.234375 11.210938 " fill-opacity="1" fill-rule="nonzero"/><g clip-path="url(#8939cb5a45)"><path fill="#762190" d="M 22.210938 15.265625 C 22.199219 14.574219 23.007812 14.054688 23.652344 14.324219 C 24.722656 14.679688 25.664062 15.492188 26.089844 16.53125 C 26.253906 17.105469 25.40625 17.601562 25.015625 17.113281 C 24.613281 16.523438 24.171875 15.953125 23.527344 15.597656 C 23.445312 17.105469 23.550781 18.613281 23.472656 20.117188 C 23.375 21.316406 21.949219 22.140625 20.835938 21.652344 C 19.703125 21.253906 19.226562 19.746094 19.9375 18.785156 C 20.410156 18.042969 21.375 17.808594 22.203125 18.015625 C 22.210938 17.097656 22.175781 16.183594 22.210938 15.265625 Z M 22.210938 15.265625 " fill-opacity="1" fill-rule="nonzero"/></g><path fill="#762190" d="M 12.761719 4.398438 C 12.757812 4.015625 13.203125 3.726562 13.558594 3.875 C 14.152344 4.070312 14.671875 4.519531 14.910156 5.097656 C 15 5.414062 14.53125 5.6875 14.316406 5.417969 C 14.09375 5.09375 13.847656 4.777344 13.492188 4.582031 C 13.445312 5.414062 13.503906 6.25 13.460938 7.082031 C 13.40625 7.746094 12.617188 8.199219 12 7.933594 C 11.375 7.710938 11.113281 6.875 11.503906 6.34375 C 11.765625 5.933594 12.300781 5.804688 12.757812 5.917969 C 12.761719 5.410156 12.742188 4.90625 12.761719 4.398438 Z M 12.761719 4.398438 " fill-opacity="1" fill-rule="nonzero"/></svg>