<svg xmlns="http://www.w3.org/2000/svg" xmlns:xlink="http://www.w3.org/1999/xlink" width="40" zoomAndPan="magnify" viewBox="0 0 30 30.000001" height="40" preserveAspectRatio="xMidYMid meet" version="1.0"><defs><clipPath id="647f1520d2"><path d="M 8 9 L 26.613281 9 L 26.613281 19.886719 L 8 19.886719 Z M 8 9 " clip-rule="nonzero"/></clipPath><clipPath id="d2ac90fd95"><path d="M 3.386719 11 L 10 11 L 10 18 L 3.386719 18 Z M 3.386719 11 " clip-rule="nonzero"/></clipPath><clipPath id="3d6be556ef"><path d="M 3.386719 16 L 26.613281 16 L 26.613281 19.886719 L 3.386719 19.886719 Z M 3.386719 16 " clip-rule="nonzero"/></clipPath></defs><path fill="#762190" d="M 8.761719 15.585938 C 8.710938 15.804688 8.660156 16.082031 8.84375 16.257812 C 8.882812 16.289062 8.917969 16.316406 8.960938 16.339844 C 8.65625 15.929688 9.015625 14.878906 9.59375 15.097656 C 9.902344 15.214844 9.933594 15.578125 9.8125 15.902344 C 9.859375 15.828125 9.898438 15.75 9.921875 15.671875 C 10 15.410156 9.9375 14.988281 9.640625 14.890625 C 9.632812 14.894531 9.621094 14.898438 9.609375 14.898438 C 9.160156 14.910156 8.867188 15.15625 8.761719 15.585938 " fill-opacity="1" fill-rule="nonzero"/><path fill="#762190" d="M 7.949219 15.011719 C 7.4375 15.65625 7.335938 16.488281 7.09375 17.253906 C 7.125 17.269531 7.160156 17.296875 7.179688 17.351562 C 7.183594 17.359375 7.183594 17.363281 7.183594 17.371094 C 7.1875 17.371094 7.191406 17.371094 7.195312 17.371094 C 7.226562 17.375 7.257812 17.378906 7.289062 17.386719 C 7.320312 17.390625 7.347656 17.402344 7.375 17.410156 L 7.394531 17.417969 C 7.394531 17.417969 7.394531 17.417969 7.398438 17.417969 L 7.40625 17.417969 L 7.445312 17.429688 C 7.457031 17.429688 7.464844 17.433594 7.472656 17.429688 C 7.480469 17.429688 7.550781 17.398438 7.613281 17.382812 L 7.625 17.378906 L 7.632812 17.378906 L 7.648438 17.375 L 7.671875 17.371094 L 7.710938 17.367188 C 7.742188 17.363281 7.78125 17.363281 7.816406 17.363281 C 7.859375 17.367188 7.898438 17.371094 7.9375 17.378906 C 8.097656 17.183594 8.390625 16.984375 8.632812 17.023438 C 8.632812 17.007812 8.632812 16.992188 8.632812 16.976562 C 8.484375 16.867188 8.402344 16.792969 8.414062 16.777344 C 8.425781 16.757812 8.511719 16.789062 8.652344 16.855469 C 8.6875 16.714844 8.765625 16.582031 8.878906 16.492188 C 8.582031 16.34375 8.5 15.953125 8.578125 15.617188 C 8.703125 15.101562 9.007812 14.773438 9.542969 14.734375 C 9.542969 14.65625 9.539062 14.578125 9.535156 14.5 C 8.949219 14.414062 8.382812 14.457031 7.949219 15.011719 " fill-opacity="1" fill-rule="nonzero"/><path fill="#762190" d="M 10.5 14.53125 C 10.507812 14.527344 10.519531 14.523438 10.527344 14.523438 C 10.546875 14.515625 10.566406 14.507812 10.585938 14.496094 C 10.308594 14.320312 10.007812 14.167969 9.691406 14.050781 C 9.691406 14.160156 9.695312 14.269531 9.703125 14.375 C 9.960938 14.417969 10.226562 14.480469 10.5 14.53125 " fill-opacity="1" fill-rule="nonzero"/><path fill="#762190" d="M 9.148438 16.289062 C 9.546875 16.363281 9.949219 15.363281 9.546875 15.261719 C 9.078125 15.136719 8.863281 16.09375 9.148438 16.289062 " fill-opacity="1" fill-rule="nonzero"/><path fill="#762190" d="M 8.585938 17.179688 C 8.445312 17.167969 8.257812 17.296875 8.132812 17.417969 C 8.152344 17.421875 8.175781 17.429688 8.195312 17.4375 C 8.226562 17.441406 8.257812 17.457031 8.285156 17.46875 C 8.320312 17.480469 8.351562 17.496094 8.382812 17.511719 C 8.414062 17.53125 8.445312 17.542969 8.476562 17.574219 L 8.523438 17.617188 L 8.53125 17.621094 L 8.546875 17.640625 L 8.546875 17.644531 L 8.554688 17.652344 C 8.558594 17.660156 8.570312 17.679688 8.574219 17.695312 L 8.582031 17.710938 C 8.601562 17.703125 8.625 17.691406 8.664062 17.679688 C 8.699219 17.667969 8.71875 17.664062 8.746094 17.65625 L 8.757812 17.65625 C 8.769531 17.609375 8.78125 17.546875 8.789062 17.480469 C 8.777344 17.363281 8.722656 17.25 8.617188 17.203125 C 8.601562 17.199219 8.59375 17.191406 8.585938 17.179688 " fill-opacity="1" fill-rule="nonzero"/><g clip-path="url(#647f1520d2)"><path fill="#762190" d="M 16.578125 15.601562 C 16.601562 15.503906 16.636719 15.4375 16.65625 15.378906 C 16.707031 15.101562 16.675781 14.855469 16.660156 14.6875 C 16.636719 14.515625 16.625 14.414062 16.640625 14.410156 C 16.65625 14.40625 16.703125 14.496094 16.753906 14.667969 C 16.800781 14.839844 16.859375 15.09375 16.820312 15.410156 L 16.816406 15.414062 C 16.796875 15.5 16.761719 15.574219 16.753906 15.632812 C 16.746094 15.667969 16.75 15.679688 16.757812 15.699219 C 16.769531 15.722656 16.773438 15.71875 16.78125 15.730469 C 16.792969 15.742188 16.804688 15.757812 16.820312 15.769531 C 16.933594 15.871094 17.09375 15.957031 17.25 16.066406 C 17.28125 16.085938 17.3125 16.109375 17.34375 16.136719 C 17.375 16.164062 17.394531 16.183594 17.421875 16.210938 L 17.496094 16.28125 C 17.519531 16.304688 17.539062 16.335938 17.5625 16.363281 C 17.585938 16.390625 17.609375 16.417969 17.628906 16.445312 C 17.648438 16.472656 17.664062 16.5 17.683594 16.527344 C 17.722656 16.582031 17.753906 16.636719 17.785156 16.6875 C 17.800781 16.714844 17.816406 16.742188 17.832031 16.765625 C 17.847656 16.800781 17.859375 16.820312 17.871094 16.847656 C 17.898438 16.898438 17.921875 16.949219 17.945312 16.996094 C 17.992188 17.09375 18.027344 17.195312 18.058594 17.285156 C 18.171875 17.640625 18.183594 17.871094 18.160156 17.875 C 18.128906 17.878906 18.074219 17.660156 17.933594 17.332031 C 17.890625 17.253906 17.855469 17.164062 17.804688 17.070312 C 17.777344 17.023438 17.75 16.976562 17.722656 16.925781 C 17.707031 16.902344 17.695312 16.871094 17.683594 16.855469 C 17.664062 16.828125 17.648438 16.804688 17.632812 16.78125 C 17.601562 16.730469 17.570312 16.679688 17.53125 16.628906 C 17.515625 16.605469 17.496094 16.578125 17.476562 16.554688 C 17.460938 16.53125 17.441406 16.507812 17.421875 16.484375 C 17.402344 16.460938 17.382812 16.4375 17.359375 16.414062 C 17.335938 16.390625 17.3125 16.367188 17.289062 16.34375 L 17.214844 16.277344 C 17.195312 16.257812 17.167969 16.238281 17.140625 16.222656 C 16.992188 16.117188 16.832031 16.03125 16.691406 15.902344 C 16.671875 15.886719 16.65625 15.867188 16.640625 15.847656 C 16.621094 15.824219 16.597656 15.789062 16.59375 15.773438 C 16.566406 15.71875 16.566406 15.644531 16.578125 15.601562 Z M 16.707031 13.839844 C 16.71875 13.832031 16.742188 13.851562 16.773438 13.886719 C 16.804688 13.925781 16.847656 13.972656 16.898438 14.027344 C 16.957031 14.074219 17.027344 14.132812 17.117188 14.164062 C 17.210938 14.203125 17.316406 14.222656 17.433594 14.226562 C 17.671875 14.230469 17.894531 14.179688 18.054688 14.144531 C 18.21875 14.109375 18.324219 14.085938 18.332031 14.109375 C 18.34375 14.132812 18.257812 14.199219 18.101562 14.273438 C 17.941406 14.339844 17.710938 14.421875 17.429688 14.417969 C 17.289062 14.414062 17.15625 14.382812 17.042969 14.324219 C 16.929688 14.269531 16.851562 14.183594 16.796875 14.113281 C 16.746094 14.035156 16.714844 13.964844 16.707031 13.917969 C 16.695312 13.871094 16.695312 13.84375 16.707031 13.839844 Z M 9.707031 14.527344 C 9.710938 14.597656 9.714844 14.664062 9.714844 14.734375 C 10.105469 14.867188 10.191406 15.425781 10.066406 15.769531 C 9.9375 16.113281 9.546875 16.5625 9.136719 16.550781 C 9.117188 16.550781 9.101562 16.550781 9.085938 16.546875 C 9.078125 16.558594 9.070312 16.570312 9.054688 16.574219 C 8.921875 16.648438 8.835938 16.789062 8.808594 16.933594 C 8.917969 16.988281 9.039062 17.074219 9.175781 17.164062 C 9.210938 17.1875 9.246094 17.210938 9.285156 17.234375 L 9.339844 17.273438 L 9.351562 17.285156 C 9.355469 17.285156 9.363281 17.292969 9.363281 17.292969 L 9.367188 17.292969 L 9.371094 17.300781 L 9.398438 17.324219 C 9.4375 17.363281 9.460938 17.394531 9.488281 17.414062 C 9.511719 17.433594 9.523438 17.4375 9.546875 17.433594 L 9.546875 17.4375 C 9.546875 17.4375 9.554688 17.433594 9.554688 17.433594 L 9.582031 17.425781 C 9.585938 17.421875 9.585938 17.421875 9.585938 17.421875 C 9.589844 17.414062 9.597656 17.390625 9.609375 17.355469 C 9.617188 17.324219 9.640625 17.265625 9.691406 17.222656 L 9.714844 17.207031 C 9.726562 17.199219 9.738281 17.191406 9.753906 17.183594 C 9.777344 17.175781 9.792969 17.167969 9.808594 17.164062 C 9.84375 17.152344 9.863281 17.144531 9.867188 17.140625 C 9.867188 17.140625 9.871094 17.136719 9.871094 17.136719 L 9.878906 17.113281 C 9.878906 17.101562 9.878906 17.078125 9.871094 17.046875 C 9.867188 17.019531 9.859375 16.984375 9.867188 16.933594 L 9.867188 16.921875 C 9.886719 16.859375 9.933594 16.816406 9.953125 16.796875 C 9.972656 16.773438 9.980469 16.757812 9.984375 16.730469 C 9.988281 16.671875 9.984375 16.609375 9.972656 16.574219 C 9.949219 16.5 9.878906 16.484375 9.886719 16.464844 C 9.886719 16.457031 9.902344 16.453125 9.933594 16.457031 C 9.964844 16.460938 10.015625 16.476562 10.054688 16.535156 C 10.070312 16.558594 10.085938 16.59375 10.09375 16.625 C 10.097656 16.640625 10.101562 16.660156 10.105469 16.675781 L 10.109375 16.699219 C 10.109375 16.714844 10.109375 16.722656 10.109375 16.734375 C 10.117188 16.777344 10.097656 16.839844 10.070312 16.882812 C 10.042969 16.917969 10.027344 16.9375 10.023438 16.957031 C 10.023438 16.964844 10.027344 16.984375 10.03125 17.011719 C 10.039062 17.039062 10.050781 17.074219 10.050781 17.125 C 10.050781 17.140625 10.046875 17.15625 10.042969 17.167969 L 10.039062 17.191406 C 10.023438 17.222656 10.011719 17.246094 9.992188 17.265625 C 9.949219 17.308594 9.902344 17.320312 9.871094 17.332031 C 9.855469 17.339844 9.84375 17.34375 9.835938 17.347656 C 9.832031 17.347656 9.832031 17.351562 9.828125 17.351562 L 9.808594 17.367188 C 9.808594 17.371094 9.800781 17.378906 9.792969 17.414062 C 9.777344 17.445312 9.773438 17.492188 9.726562 17.542969 C 9.710938 17.566406 9.664062 17.59375 9.644531 17.601562 L 9.617188 17.609375 L 9.59375 17.617188 L 9.570312 17.621094 C 9.550781 17.625 9.535156 17.625 9.515625 17.625 C 9.496094 17.621094 9.476562 17.617188 9.457031 17.613281 C 9.421875 17.597656 9.390625 17.582031 9.367188 17.5625 C 9.320312 17.523438 9.289062 17.480469 9.265625 17.457031 L 9.234375 17.425781 C 9.234375 17.425781 9.222656 17.417969 9.222656 17.417969 L 9.171875 17.378906 C 9.136719 17.351562 9.101562 17.328125 9.070312 17.304688 C 9.015625 17.261719 8.960938 17.21875 8.910156 17.179688 C 8.953125 17.265625 8.964844 17.378906 8.960938 17.480469 C 8.960938 17.53125 8.960938 17.585938 8.949219 17.632812 C 8.984375 17.636719 9.011719 17.636719 9.050781 17.644531 C 9.078125 17.648438 9.101562 17.652344 9.132812 17.660156 C 9.164062 17.671875 9.199219 17.679688 9.226562 17.691406 C 9.28125 17.714844 9.332031 17.742188 9.382812 17.777344 C 9.527344 17.636719 9.722656 17.566406 9.933594 17.601562 C 10.085938 17.628906 10.1875 17.621094 10.304688 17.507812 C 10.335938 17.476562 10.378906 17.433594 10.417969 17.414062 C 10.453125 17.398438 10.488281 17.382812 10.527344 17.371094 C 10.542969 17.359375 10.566406 17.347656 10.585938 17.339844 L 10.613281 17.324219 L 10.628906 17.316406 L 10.632812 17.3125 L 10.648438 17.308594 L 10.65625 17.304688 C 10.679688 17.300781 10.691406 17.289062 10.722656 17.285156 C 10.757812 17.28125 10.792969 17.273438 10.828125 17.28125 C 10.898438 17.289062 10.964844 17.335938 11 17.371094 C 11.039062 17.40625 11.070312 17.449219 11.101562 17.46875 C 11.132812 17.496094 11.167969 17.519531 11.195312 17.527344 C 11.207031 17.535156 11.214844 17.53125 11.214844 17.53125 L 11.226562 17.53125 L 11.242188 17.496094 C 11.257812 17.460938 11.285156 17.425781 11.308594 17.398438 C 11.316406 17.386719 11.371094 17.335938 11.40625 17.324219 C 11.449219 17.304688 11.496094 17.292969 11.535156 17.292969 C 11.617188 17.289062 11.683594 17.308594 11.738281 17.320312 C 11.796875 17.335938 11.847656 17.34375 11.882812 17.34375 C 11.941406 17.34375 11.996094 17.335938 12.066406 17.335938 C 12.136719 17.335938 12.222656 17.335938 12.3125 17.382812 L 12.320312 17.390625 L 12.324219 17.390625 C 12.332031 17.394531 12.320312 17.386719 12.335938 17.398438 L 12.34375 17.40625 L 12.363281 17.417969 C 12.375 17.425781 12.394531 17.449219 12.414062 17.464844 L 12.4375 17.488281 C 12.441406 17.496094 12.449219 17.488281 12.453125 17.496094 C 12.457031 17.496094 12.46875 17.5 12.46875 17.5 C 12.484375 17.5 12.503906 17.507812 12.511719 17.507812 C 12.519531 17.503906 12.523438 17.507812 12.527344 17.507812 C 12.53125 17.503906 12.535156 17.507812 12.539062 17.503906 C 12.542969 17.507812 12.605469 17.441406 12.679688 17.402344 L 12.6875 17.394531 L 12.691406 17.394531 C 12.691406 17.390625 12.710938 17.382812 12.710938 17.382812 L 12.746094 17.371094 C 12.761719 17.363281 12.800781 17.359375 12.828125 17.355469 C 12.878906 17.347656 12.914062 17.351562 12.953125 17.355469 C 13.023438 17.359375 13.089844 17.363281 13.117188 17.359375 C 13.117188 17.359375 13.121094 17.355469 13.125 17.355469 C 13.132812 17.339844 13.140625 17.328125 13.148438 17.316406 L 13.164062 17.296875 L 13.175781 17.289062 L 13.191406 17.269531 C 13.214844 17.246094 13.234375 17.226562 13.234375 17.21875 C 13.242188 17.21875 13.238281 17.210938 13.242188 17.207031 C 13.242188 17.203125 13.242188 17.199219 13.246094 17.199219 L 13.261719 17.195312 C 13.261719 17.191406 13.277344 17.234375 13.277344 17.21875 C 13.277344 17.214844 13.277344 17.207031 13.277344 17.207031 L 13.277344 17.195312 L 13.261719 17.171875 C 13.257812 17.167969 13.25 17.167969 13.25 17.164062 L 13.246094 17.15625 L 13.238281 17.136719 C 13.230469 17.109375 13.21875 17.066406 13.214844 17.015625 C 13.214844 16.988281 13.21875 16.957031 13.226562 16.929688 C 13.238281 16.90625 13.25 16.875 13.261719 16.855469 C 13.277344 16.835938 13.292969 16.816406 13.308594 16.800781 L 13.320312 16.785156 C 13.324219 16.785156 13.328125 16.78125 13.328125 16.78125 L 13.335938 16.773438 L 13.355469 16.757812 C 13.378906 16.742188 13.441406 16.707031 13.476562 16.699219 C 13.511719 16.6875 13.546875 16.675781 13.582031 16.667969 C 13.648438 16.652344 13.714844 16.648438 13.785156 16.644531 C 13.820312 16.644531 13.851562 16.644531 13.890625 16.648438 L 13.921875 16.652344 L 13.933594 16.65625 L 13.945312 16.65625 L 13.964844 16.660156 C 13.964844 16.660156 14.003906 16.675781 14.003906 16.675781 C 14.015625 16.679688 14.042969 16.695312 14.066406 16.707031 C 14.09375 16.722656 14.113281 16.738281 14.128906 16.757812 C 14.144531 16.773438 14.160156 16.792969 14.171875 16.8125 C 14.179688 16.824219 14.183594 16.835938 14.1875 16.847656 C 14.207031 16.828125 14.222656 16.804688 14.246094 16.78125 C 14.265625 16.757812 14.292969 16.738281 14.316406 16.71875 C 14.347656 16.703125 14.378906 16.683594 14.410156 16.675781 L 14.453125 16.664062 L 14.476562 16.660156 L 14.476562 16.675781 L 14.496094 16.691406 C 14.496094 16.691406 14.5 16.691406 14.5 16.691406 L 14.511719 16.691406 L 14.578125 16.675781 C 14.621094 16.675781 14.683594 16.679688 14.734375 16.691406 C 14.78125 16.707031 14.828125 16.714844 14.875 16.738281 L 14.941406 16.773438 L 14.949219 16.785156 L 14.953125 16.804688 L 14.96875 16.796875 L 14.96875 16.777344 L 14.984375 16.792969 C 14.988281 16.800781 14.996094 16.804688 15.007812 16.816406 L 15.050781 16.871094 C 15.054688 16.875 15.0625 16.882812 15.0625 16.882812 C 15.070312 16.882812 15.078125 16.886719 15.09375 16.878906 C 15.113281 16.871094 15.140625 16.855469 15.179688 16.832031 C 15.21875 16.808594 15.261719 16.785156 15.332031 16.78125 C 15.351562 16.78125 15.367188 16.777344 15.386719 16.78125 C 15.414062 16.78125 15.441406 16.789062 15.464844 16.792969 C 15.554688 16.824219 15.625 16.875 15.671875 16.945312 C 15.695312 16.972656 15.707031 17.007812 15.714844 17.042969 C 15.785156 17.015625 15.859375 17.003906 15.917969 17.023438 C 15.945312 17.027344 15.96875 17.035156 15.992188 17.046875 C 16.074219 17.050781 16.171875 17.070312 16.277344 17.125 C 16.308594 17.144531 16.339844 17.167969 16.367188 17.203125 C 16.386719 17.21875 16.398438 17.238281 16.40625 17.261719 C 16.417969 17.285156 16.425781 17.3125 16.425781 17.339844 C 16.425781 17.386719 16.414062 17.429688 16.394531 17.46875 C 16.421875 17.46875 16.445312 17.46875 16.476562 17.472656 C 16.554688 17.472656 16.65625 17.476562 16.75 17.519531 C 16.800781 17.539062 16.839844 17.566406 16.886719 17.597656 L 16.941406 17.640625 L 16.996094 17.691406 C 17.066406 17.757812 17.121094 17.8125 17.191406 17.847656 C 17.207031 17.859375 17.230469 17.867188 17.25 17.875 L 17.273438 17.886719 L 17.3125 17.894531 C 17.359375 17.914062 17.402344 17.917969 17.441406 17.925781 C 17.535156 17.9375 17.644531 17.945312 17.761719 17.972656 C 17.882812 18 18.011719 18.050781 18.101562 18.171875 C 18.132812 18.210938 18.144531 18.238281 18.160156 18.265625 L 18.199219 18.339844 C 18.210938 18.367188 18.222656 18.386719 18.234375 18.410156 C 18.234375 18.410156 18.234375 18.410156 18.238281 18.410156 C 18.199219 18.363281 18.644531 18.417969 18.6875 18.433594 C 19.039062 18.558594 19.195312 18.613281 19.535156 18.457031 C 19.621094 18.421875 19.738281 18.386719 19.851562 18.398438 C 19.90625 18.402344 19.949219 18.410156 20.011719 18.425781 C 20.058594 18.441406 20.09375 18.449219 20.148438 18.476562 C 20.324219 18.554688 20.453125 18.675781 20.554688 18.800781 C 20.609375 18.863281 20.65625 18.921875 20.703125 18.980469 C 20.726562 19.015625 20.746094 19.027344 20.769531 19.050781 C 20.789062 19.074219 20.816406 19.089844 20.839844 19.109375 C 20.9375 19.183594 21.058594 19.21875 21.1875 19.230469 C 21.21875 19.234375 21.253906 19.234375 21.289062 19.234375 C 21.320312 19.238281 21.351562 19.238281 21.390625 19.238281 C 21.414062 19.238281 21.4375 19.234375 21.457031 19.234375 C 21.457031 19.203125 21.457031 19.171875 21.460938 19.136719 C 21.46875 19.054688 21.519531 18.957031 21.585938 18.902344 C 21.652344 18.847656 21.71875 18.820312 21.773438 18.792969 C 21.832031 18.769531 21.886719 18.746094 21.929688 18.726562 C 21.984375 18.699219 22.03125 18.675781 22.082031 18.644531 C 22.136719 18.617188 22.191406 18.585938 22.261719 18.570312 C 22.292969 18.558594 22.328125 18.550781 22.363281 18.546875 C 22.398438 18.542969 22.433594 18.546875 22.46875 18.550781 C 22.503906 18.554688 22.535156 18.5625 22.566406 18.570312 L 22.609375 18.585938 L 22.621094 18.589844 L 22.636719 18.59375 L 22.640625 18.597656 L 22.660156 18.605469 L 22.695312 18.625 C 22.707031 18.628906 22.722656 18.644531 22.738281 18.652344 C 22.773438 18.675781 22.792969 18.699219 22.816406 18.722656 C 22.855469 18.765625 22.886719 18.8125 22.914062 18.851562 C 22.941406 18.890625 22.964844 18.921875 22.988281 18.941406 L 22.992188 18.945312 C 22.996094 18.945312 23.003906 18.953125 23.003906 18.953125 L 23.035156 18.96875 C 23.058594 18.980469 23.070312 18.980469 23.089844 18.988281 C 23.199219 19.023438 23.332031 19.027344 23.445312 19.011719 C 23.441406 19.007812 23.441406 19 23.4375 18.992188 C 23.429688 18.96875 23.421875 18.945312 23.421875 18.917969 C 23.417969 18.894531 23.421875 18.867188 23.429688 18.839844 C 23.441406 18.8125 23.453125 18.792969 23.464844 18.773438 C 23.472656 18.746094 23.492188 18.703125 23.535156 18.65625 C 23.539062 18.652344 23.546875 18.648438 23.550781 18.644531 C 23.21875 18.164062 22.714844 17.902344 22.300781 17.507812 C 21.925781 17.148438 21.585938 16.734375 21.105469 16.515625 C 20.769531 16.363281 20.390625 16.257812 20.050781 16.105469 C 19.769531 16.050781 19.511719 16.015625 19.324219 15.988281 C 19.132812 15.964844 19.007812 15.945312 19.007812 15.917969 C 19.007812 15.890625 19.128906 15.863281 19.328125 15.855469 C 19.414062 15.851562 19.511719 15.855469 19.617188 15.859375 C 19.242188 15.589844 18.945312 15.234375 18.550781 14.992188 C 18.53125 14.980469 18.511719 14.964844 18.503906 14.949219 C 18.480469 14.933594 18.449219 14.921875 18.425781 14.90625 C 18.414062 14.902344 18.402344 14.890625 18.394531 14.882812 L 18.375 14.890625 L 18.347656 14.90625 L 18.289062 14.9375 C 18.25 14.953125 18.214844 14.972656 18.175781 14.992188 C 18.140625 15.007812 18.101562 15.035156 18.066406 15.058594 C 17.929688 15.148438 17.789062 15.226562 17.683594 15.285156 C 17.574219 15.34375 17.488281 15.394531 17.4375 15.429688 C 17.410156 15.445312 17.390625 15.46875 17.371094 15.480469 C 17.355469 15.492188 17.34375 15.492188 17.335938 15.488281 C 17.328125 15.484375 17.324219 15.472656 17.328125 15.453125 C 17.335938 15.433594 17.339844 15.40625 17.359375 15.371094 C 17.40625 15.300781 17.476562 15.222656 17.582031 15.140625 C 17.683594 15.054688 17.800781 14.972656 17.9375 14.871094 C 17.972656 14.84375 18.003906 14.820312 18.042969 14.792969 C 18.085938 14.773438 18.125 14.75 18.167969 14.726562 L 18.234375 14.691406 L 18.265625 14.671875 C 18.265625 14.671875 18.265625 14.671875 18.269531 14.671875 L 18.273438 14.667969 L 18.289062 14.660156 C 18.328125 14.636719 18.371094 14.609375 18.410156 14.585938 C 18.492188 14.535156 18.582031 14.492188 18.652344 14.441406 C 18.722656 14.390625 18.789062 14.34375 18.855469 14.296875 C 18.921875 14.253906 18.976562 14.199219 19.035156 14.15625 C 19.074219 14.125 19.109375 14.097656 19.140625 14.070312 C 19.796875 13.476562 20.308594 12.742188 20.753906 11.976562 C 20.753906 11.972656 20.757812 11.96875 20.757812 11.96875 C 20.699219 11.933594 20.636719 11.894531 20.574219 11.855469 C 20.464844 11.78125 20.363281 11.710938 20.273438 11.640625 C 20.210938 11.597656 20.148438 11.5625 20.089844 11.523438 C 19.949219 11.433594 19.832031 11.363281 19.726562 11.292969 C 19.515625 11.167969 19.386719 11.085938 19.398438 11.058594 C 19.40625 11.039062 19.558594 11.078125 19.785156 11.171875 C 19.882812 11.21875 20 11.273438 20.121094 11.339844 C 20.171875 11.367188 20.226562 11.394531 20.277344 11.429688 C 20.390625 11.496094 20.511719 11.5625 20.636719 11.636719 C 20.679688 11.660156 20.71875 11.683594 20.757812 11.707031 C 20.796875 11.726562 20.835938 11.75 20.875 11.769531 C 20.953125 11.816406 21.027344 11.859375 21.097656 11.890625 C 21.167969 11.929688 21.234375 11.964844 21.300781 11.996094 C 21.316406 12.003906 21.335938 12.011719 21.351562 12.019531 C 21.949219 12.238281 22.546875 12.464844 23.1875 12.511719 C 23.257812 12.515625 23.335938 12.519531 23.410156 12.519531 C 23.425781 12.507812 23.445312 12.492188 23.46875 12.480469 C 23.390625 12.457031 23.316406 12.441406 23.257812 12.40625 C 23.222656 12.390625 23.1875 12.375 23.15625 12.359375 C 23.125 12.335938 23.097656 12.316406 23.074219 12.300781 C 23.046875 12.28125 23.023438 12.265625 23.003906 12.246094 C 22.988281 12.230469 22.972656 12.210938 22.957031 12.195312 C 22.898438 12.136719 22.875 12.09375 22.886719 12.082031 C 22.894531 12.070312 22.9375 12.085938 23.011719 12.128906 C 23.03125 12.136719 23.050781 12.148438 23.074219 12.160156 C 23.09375 12.171875 23.117188 12.183594 23.144531 12.191406 C 23.167969 12.203125 23.195312 12.214844 23.222656 12.226562 C 23.25 12.238281 23.285156 12.246094 23.316406 12.257812 C 23.378906 12.28125 23.457031 12.289062 23.53125 12.300781 C 23.613281 12.304688 23.699219 12.308594 23.789062 12.300781 C 23.835938 12.300781 23.882812 12.292969 23.933594 12.285156 C 23.949219 12.285156 23.96875 12.28125 23.988281 12.277344 C 24.015625 12.269531 24.046875 12.261719 24.074219 12.257812 C 24.242188 12.21875 24.402344 12.199219 24.53125 12.199219 C 24.710938 12.179688 24.886719 12.171875 25.046875 12.164062 C 25.246094 12.15625 25.417969 12.152344 25.566406 12.15625 C 25.617188 12.152344 25.664062 12.152344 25.707031 12.152344 C 25.980469 12.109375 26.222656 12.03125 26.246094 11.789062 C 26.058594 11.820312 25.859375 11.816406 25.667969 11.808594 C 24.714844 11.792969 23.9375 11.742188 23.9375 11.679688 C 23.941406 11.617188 24.714844 11.566406 25.671875 11.578125 C 25.898438 11.59375 26.09375 11.597656 26.265625 11.566406 C 26.277344 11.554688 26.289062 11.542969 26.304688 11.535156 C 26.371094 11.492188 26.40625 11.433594 26.417969 11.375 C 26.417969 11.363281 26.417969 11.355469 26.414062 11.34375 C 26.414062 11.324219 26.410156 11.304688 26.40625 11.289062 L 26.40625 11.28125 C 26.402344 11.277344 26.402344 11.277344 26.402344 11.277344 L 26.398438 11.269531 L 26.390625 11.238281 L 26.382812 11.214844 L 26.371094 11.195312 C 26.363281 11.1875 26.363281 11.171875 26.351562 11.164062 C 26.34375 11.152344 26.335938 11.144531 26.332031 11.132812 C 26.320312 11.128906 26.308594 11.121094 26.300781 11.113281 C 26.296875 11.109375 26.289062 11.109375 26.28125 11.105469 C 26.230469 11.105469 26.183594 11.105469 26.136719 11.101562 C 26.105469 11.097656 26.070312 11.09375 26.042969 11.089844 C 26.027344 11.089844 26.007812 11.085938 26.003906 11.085938 L 25.957031 11.085938 C 25.835938 11.078125 25.707031 11.074219 25.582031 11.066406 C 25.453125 11.054688 25.324219 11.058594 25.203125 11.058594 C 25.082031 11.054688 24.964844 11.054688 24.851562 11.050781 C 24.625 11.054688 24.417969 11.050781 24.246094 11.046875 C 23.90625 11.03125 23.691406 11.007812 23.691406 10.976562 C 23.691406 10.945312 23.902344 10.910156 24.246094 10.882812 C 24.417969 10.871094 24.621094 10.855469 24.84375 10.84375 C 24.960938 10.839844 25.078125 10.835938 25.203125 10.835938 C 25.328125 10.832031 25.457031 10.828125 25.589844 10.839844 C 25.722656 10.847656 25.851562 10.855469 25.976562 10.863281 L 26.023438 10.863281 C 26.046875 10.867188 26.054688 10.871094 26.074219 10.871094 C 26.101562 10.875 26.128906 10.878906 26.15625 10.882812 C 26.210938 10.890625 26.265625 10.894531 26.308594 10.890625 C 26.316406 10.890625 26.320312 10.890625 26.328125 10.890625 C 26.332031 10.882812 26.335938 10.878906 26.339844 10.871094 C 26.371094 10.835938 26.46875 10.71875 26.425781 10.675781 C 26.398438 10.652344 26.363281 10.636719 26.328125 10.625 C 26.265625 10.617188 26.1875 10.609375 26.101562 10.605469 C 25.945312 10.597656 25.757812 10.59375 25.550781 10.59375 C 25.339844 10.601562 25.105469 10.597656 24.859375 10.589844 C 24.613281 10.582031 24.375 10.578125 24.164062 10.5625 C 23.953125 10.542969 23.761719 10.519531 23.605469 10.496094 C 23.289062 10.449219 23.09375 10.40625 23.09375 10.375 C 23.09375 10.34375 23.296875 10.332031 23.617188 10.335938 C 23.777344 10.335938 23.96875 10.34375 24.179688 10.351562 C 24.390625 10.355469 24.625 10.355469 24.863281 10.363281 C 25.007812 10.367188 25.144531 10.371094 25.277344 10.375 C 24.953125 9.855469 24.375 10.050781 23.851562 9.992188 C 23.5625 9.964844 23.28125 9.917969 22.996094 9.898438 C 22.992188 9.898438 22.988281 9.902344 22.984375 9.902344 C 22.929688 9.914062 22.875 9.925781 22.816406 9.941406 C 22.753906 9.953125 22.691406 9.964844 22.625 9.984375 C 22.554688 10 22.488281 10.015625 22.414062 10.035156 C 22.339844 10.058594 22.261719 10.078125 22.183594 10.101562 C 21.875 10.183594 21.578125 10.273438 21.351562 10.277344 C 21.117188 10.289062 20.992188 10.234375 20.992188 10.207031 C 20.992188 10.171875 21.136719 10.167969 21.328125 10.117188 C 21.527344 10.074219 21.800781 9.96875 22.121094 9.882812 C 22.160156 9.871094 22.199219 9.859375 22.238281 9.851562 C 22.234375 9.847656 22.234375 9.847656 22.230469 9.84375 C 22.21875 9.835938 22.207031 9.824219 22.195312 9.808594 C 21.796875 9.273438 21.421875 9.015625 20.726562 9.273438 C 20.238281 9.453125 19.800781 9.679688 19.425781 10.042969 C 18.894531 10.5625 18.21875 11.042969 17.738281 11.625 C 17.726562 11.652344 17.710938 11.679688 17.695312 11.710938 C 17.65625 11.777344 17.609375 11.839844 17.5625 11.910156 C 17.503906 11.988281 17.441406 12.054688 17.375 12.121094 C 17.34375 12.152344 17.316406 12.179688 17.285156 12.210938 C 17.253906 12.242188 17.226562 12.285156 17.195312 12.324219 L 17.1875 12.332031 C 17.1875 12.332031 17.179688 12.34375 17.179688 12.34375 L 17.164062 12.375 L 17.132812 12.433594 C 17.109375 12.472656 17.09375 12.515625 17.074219 12.554688 C 17.039062 12.636719 17.011719 12.71875 16.980469 12.792969 C 16.929688 12.953125 16.882812 13.097656 16.84375 13.21875 C 16.757812 13.464844 16.675781 13.601562 16.652344 13.59375 C 16.625 13.585938 16.660156 13.429688 16.710938 13.183594 C 16.769531 12.933594 16.816406 12.582031 17.042969 12.210938 C 17.074219 12.171875 17.097656 12.132812 17.132812 12.09375 C 17.15625 12.074219 17.179688 12.050781 17.199219 12.027344 C 16.417969 12.109375 15.613281 12.636719 15.050781 13.148438 C 14.414062 13.734375 14.105469 14.429688 13.976562 15.25 C 13.984375 15.320312 14 15.398438 14.019531 15.476562 C 14.03125 15.527344 14.050781 15.582031 14.066406 15.632812 C 14.078125 15.683594 14.089844 15.746094 14.101562 15.796875 C 14.109375 15.90625 14.101562 16.007812 14.082031 16.082031 C 14.050781 16.234375 14.003906 16.316406 13.980469 16.316406 C 13.953125 16.3125 13.949219 16.214844 13.945312 16.066406 C 13.949219 15.996094 13.941406 15.914062 13.925781 15.828125 C 13.910156 15.78125 13.902344 15.738281 13.886719 15.691406 C 13.878906 15.667969 13.871094 15.644531 13.863281 15.621094 C 13.855469 15.628906 13.84375 15.632812 13.835938 15.640625 C 13.566406 15.78125 13.378906 16.058594 13.226562 16.3125 C 13.1875 16.371094 13.132812 16.394531 13.078125 16.390625 C 13.066406 16.394531 13.050781 16.398438 13.035156 16.394531 C 12.945312 16.386719 12.796875 16.382812 12.734375 16.382812 C 12.789062 16.511719 12.820312 16.636719 12.828125 16.742188 C 12.824219 16.878906 12.800781 16.960938 12.773438 16.964844 C 12.746094 16.964844 12.722656 16.878906 12.691406 16.753906 C 12.652344 16.636719 12.589844 16.476562 12.484375 16.308594 C 12.390625 16.167969 12.296875 16.039062 12.222656 15.929688 C 11.996094 15.699219 11.75 15.484375 11.496094 15.28125 C 11.414062 15.296875 11.320312 15.277344 11.25 15.246094 C 10.96875 15.140625 10.660156 14.941406 10.480469 14.691406 C 10.226562 14.640625 9.964844 14.574219 9.707031 14.527344 " fill-opacity="1" fill-rule="nonzero"/></g><path fill="#762190" d="M 24.140625 12.617188 C 24.234375 12.648438 24.324219 12.683594 24.417969 12.722656 C 24.664062 12.917969 24.851562 12.851562 24.988281 12.523438 C 24.984375 12.519531 24.980469 12.511719 24.976562 12.503906 C 24.902344 12.519531 24.820312 12.535156 24.738281 12.550781 C 24.523438 12.585938 24.316406 12.609375 24.140625 12.617188 " fill-opacity="1" fill-rule="nonzero"/><path fill="#762190" d="M 11.441406 15.117188 C 11.441406 15.117188 11.4375 15.117188 11.441406 15.113281 C 11.460938 14.886719 11.25 14.761719 11.042969 14.761719 C 11.03125 14.769531 11.015625 14.777344 10.996094 14.777344 C 10.914062 14.777344 10.835938 14.765625 10.757812 14.75 C 10.878906 14.859375 11.019531 14.949219 11.152344 15.019531 C 11.226562 15.058594 11.347656 15.128906 11.441406 15.117188 " fill-opacity="1" fill-rule="nonzero"/><path fill="#762190" d="M 7.621094 13.898438 C 6.605469 14.160156 6.074219 15.144531 5.847656 16.089844 C 5.914062 16.144531 5.964844 16.195312 6.003906 16.210938 L 6.019531 16.21875 L 6.035156 16.222656 C 6.0625 16.230469 6.0625 16.222656 6.074219 16.222656 L 6.105469 16.222656 C 6.121094 16.222656 6.128906 16.21875 6.148438 16.21875 C 6.164062 16.222656 6.183594 16.222656 6.203125 16.222656 L 6.222656 16.242188 L 6.246094 16.242188 L 6.246094 16.238281 L 6.246094 16.242188 L 6.261719 16.246094 L 6.296875 16.257812 C 6.304688 16.257812 6.316406 16.265625 6.332031 16.273438 C 6.359375 16.292969 6.394531 16.3125 6.414062 16.335938 C 6.433594 16.355469 6.457031 16.375 6.472656 16.394531 L 6.519531 16.457031 C 6.550781 16.503906 6.582031 16.550781 6.601562 16.613281 C 6.609375 16.640625 6.613281 16.683594 6.617188 16.71875 L 6.613281 16.742188 L 6.613281 16.75 L 6.609375 16.757812 L 6.605469 16.777344 C 6.605469 16.785156 6.589844 16.8125 6.582031 16.832031 C 6.578125 16.839844 6.574219 16.847656 6.570312 16.851562 C 6.589844 16.855469 6.609375 16.859375 6.632812 16.863281 C 6.667969 16.875 6.671875 16.875 6.703125 16.886719 C 6.757812 16.910156 6.804688 16.9375 6.84375 16.980469 C 6.886719 17.019531 6.914062 17.078125 6.929688 17.132812 C 6.929688 17.152344 6.933594 17.171875 6.933594 17.191406 C 7.179688 16.394531 7.28125 15.378906 7.921875 14.789062 C 8.441406 14.3125 8.972656 14.273438 9.527344 14.347656 C 9.523438 14.230469 9.519531 14.113281 9.519531 13.992188 C 8.898438 13.796875 8.234375 13.738281 7.621094 13.898438 " fill-opacity="1" fill-rule="nonzero"/><g clip-path="url(#d2ac90fd95)"><path fill="#762190" d="M 6.109375 13.441406 C 6.097656 13.4375 6.089844 13.4375 6.078125 13.433594 C 6.066406 13.425781 6.050781 13.414062 6.035156 13.40625 C 6.003906 13.386719 5.980469 13.355469 5.957031 13.320312 C 5.863281 13.175781 5.890625 12.886719 6.140625 12.746094 C 6.25 12.6875 6.394531 12.699219 6.480469 12.757812 C 6.523438 12.785156 6.554688 12.820312 6.585938 12.851562 C 6.59375 12.859375 6.59375 12.863281 6.601562 12.871094 C 6.640625 12.835938 6.683594 12.816406 6.714844 12.804688 C 6.777344 12.796875 6.804688 12.804688 6.808594 12.820312 C 6.808594 12.835938 6.785156 12.855469 6.753906 12.878906 C 6.722656 12.910156 6.683594 12.953125 6.660156 13.023438 L 6.625 13.117188 L 6.53125 13.03125 C 6.511719 13.011719 6.488281 12.988281 6.464844 12.964844 C 6.441406 12.949219 6.417969 12.929688 6.390625 12.914062 C 6.335938 12.886719 6.285156 12.890625 6.230469 12.914062 C 6.167969 12.945312 6.117188 13.015625 6.089844 13.082031 C 6.066406 13.148438 6.066406 13.210938 6.082031 13.261719 C 6.105469 13.355469 6.199219 13.414062 6.179688 13.4375 C 6.171875 13.449219 6.148438 13.449219 6.109375 13.441406 Z M 4.054688 17.035156 C 4.203125 16.949219 4.109375 16.699219 4.308594 16.667969 C 4.355469 16.65625 4.386719 16.660156 4.402344 16.65625 C 4.40625 16.65625 4.410156 16.65625 4.414062 16.65625 L 4.429688 16.640625 C 4.441406 16.632812 4.453125 16.621094 4.449219 16.617188 C 4.453125 16.605469 4.457031 16.613281 4.464844 16.589844 C 4.484375 16.554688 4.5 16.511719 4.515625 16.460938 C 4.535156 16.414062 4.554688 16.359375 4.589844 16.304688 C 4.605469 16.273438 4.625 16.246094 4.652344 16.21875 L 4.6875 16.179688 C 4.691406 16.175781 4.699219 16.167969 4.699219 16.167969 C 4.703125 16.167969 4.707031 16.164062 4.707031 16.164062 L 4.714844 16.160156 L 4.730469 16.148438 C 4.753906 16.132812 4.769531 16.117188 4.800781 16.101562 L 4.890625 16.054688 C 4.949219 16.03125 5.007812 16.003906 5.066406 15.992188 C 5.1875 15.957031 5.3125 15.945312 5.441406 15.953125 C 5.46875 15.953125 5.496094 15.953125 5.523438 15.957031 C 5.777344 14.960938 6.414062 13.785156 7.53125 13.570312 C 7.628906 13.554688 7.726562 13.539062 7.824219 13.527344 C 7.851562 13.519531 7.878906 13.507812 7.894531 13.496094 C 7.914062 13.480469 7.921875 13.464844 7.933594 13.441406 L 7.925781 13.433594 C 7.921875 13.429688 7.90625 13.410156 7.894531 13.394531 C 7.890625 13.386719 7.882812 13.371094 7.878906 13.359375 C 7.871094 13.347656 7.863281 13.339844 7.859375 13.316406 C 7.851562 13.28125 7.859375 13.21875 7.863281 13.21875 L 7.871094 13.203125 L 7.871094 13.195312 L 7.878906 13.179688 L 7.878906 13.175781 L 7.886719 13.160156 C 7.898438 13.144531 7.90625 13.121094 7.921875 13.105469 C 8.136719 12.871094 8.441406 12.945312 8.714844 13.046875 C 8.824219 13.089844 8.9375 13.128906 9.023438 13.128906 C 9.074219 13.132812 9.144531 13.089844 9.144531 13.074219 C 9.15625 13.058594 9.148438 12.992188 9.117188 12.925781 C 9.066406 12.820312 8.882812 12.640625 8.863281 12.660156 C 8.847656 12.652344 8.765625 12.703125 8.683594 12.742188 C 8.589844 12.78125 8.5 12.800781 8.394531 12.789062 C 8.296875 12.777344 8.230469 12.742188 8.164062 12.714844 C 8.105469 12.691406 8.042969 12.667969 8.007812 12.660156 C 8.003906 12.660156 8.003906 12.660156 8.003906 12.660156 C 7.949219 12.667969 7.886719 12.675781 7.8125 12.6875 C 7.78125 12.703125 7.746094 12.722656 7.707031 12.730469 C 7.671875 12.738281 7.636719 12.75 7.617188 12.75 L 7.597656 12.75 C 7.585938 12.75 7.585938 12.738281 7.574219 12.738281 C 7.5625 12.734375 7.550781 12.730469 7.539062 12.726562 C 7.535156 12.726562 7.53125 12.726562 7.53125 12.726562 C 7.441406 12.726562 7.339844 12.730469 7.222656 12.667969 C 6.890625 12.488281 7.390625 12.101562 7.300781 12.023438 C 7.296875 12.015625 7.289062 12.003906 7.277344 11.988281 C 7.261719 11.964844 7.242188 11.929688 7.242188 11.882812 C 7.242188 11.859375 7.242188 11.835938 7.257812 11.804688 C 7.261719 11.792969 7.261719 11.796875 7.265625 11.789062 C 7.269531 11.785156 7.261719 11.789062 7.273438 11.777344 L 7.28125 11.761719 C 7.3125 11.722656 7.363281 11.699219 7.394531 11.695312 C 7.425781 11.6875 7.449219 11.683594 7.472656 11.683594 L 7.5 11.683594 L 7.515625 11.679688 C 7.550781 11.652344 7.582031 11.625 7.601562 11.597656 C 7.609375 11.589844 7.621094 11.578125 7.621094 11.570312 C 7.621094 11.570312 7.621094 11.566406 7.625 11.566406 C 7.621094 11.5625 7.621094 11.558594 7.621094 11.554688 C 7.621094 11.539062 7.609375 11.503906 7.597656 11.472656 C 7.582031 11.441406 7.554688 11.382812 7.539062 11.359375 C 7.5 11.285156 7.445312 11.234375 7.390625 11.195312 C 7.335938 11.15625 7.253906 11.148438 7.179688 11.148438 C 7.144531 11.148438 7.089844 11.160156 7.042969 11.171875 C 7.011719 11.179688 6.960938 11.191406 6.929688 11.210938 C 6.851562 11.246094 6.792969 11.296875 6.742188 11.367188 C 6.59375 11.578125 6.625 11.90625 6.441406 12.089844 C 6.292969 12.242188 6.078125 12.214844 6.027344 11.992188 C 6 11.882812 5.984375 11.808594 5.949219 11.773438 C 5.945312 11.769531 5.941406 11.769531 5.941406 11.765625 C 5.941406 11.761719 5.921875 11.75 5.914062 11.746094 L 5.90625 11.738281 L 5.898438 11.738281 L 5.875 11.726562 C 5.855469 11.71875 5.839844 11.710938 5.820312 11.710938 C 5.800781 11.707031 5.785156 11.699219 5.765625 11.699219 C 5.691406 11.695312 5.617188 11.707031 5.550781 11.738281 C 5.414062 11.804688 5.300781 11.929688 5.246094 12.066406 C 5.226562 12.097656 5.222656 12.132812 5.210938 12.167969 C 5.207031 12.199219 5.199219 12.226562 5.199219 12.273438 C 5.195312 12.339844 5.210938 12.402344 5.242188 12.453125 C 5.300781 12.5625 5.429688 12.644531 5.546875 12.75 C 5.605469 12.804688 5.660156 12.859375 5.707031 12.941406 C 5.714844 12.960938 5.722656 12.972656 5.730469 12.988281 L 5.734375 13 L 5.742188 13.019531 L 5.742188 13.023438 L 5.75 13.050781 C 5.757812 13.089844 5.765625 13.125 5.765625 13.164062 C 5.773438 13.308594 5.746094 13.449219 5.648438 13.550781 C 5.601562 13.605469 5.535156 13.636719 5.472656 13.644531 C 5.457031 13.644531 5.445312 13.644531 5.433594 13.644531 C 5.398438 13.644531 5.386719 13.851562 5.394531 13.878906 C 5.457031 13.867188 5.527344 13.832031 5.597656 13.820312 C 5.613281 13.820312 5.625 13.816406 5.644531 13.820312 C 5.644531 13.820312 5.667969 13.824219 5.667969 13.824219 C 5.875 13.84375 5.929688 14.183594 6.113281 13.8125 C 6.128906 13.769531 6.144531 13.746094 6.152344 13.75 C 6.160156 13.75 6.167969 13.773438 6.167969 13.820312 C 6.160156 13.867188 6.167969 13.941406 6.097656 14.027344 C 6.0625 14.074219 6 14.097656 5.933594 14.109375 C 5.921875 14.109375 5.90625 14.109375 5.894531 14.109375 L 5.875 14.113281 L 5.867188 14.113281 C 5.863281 14.113281 5.859375 14.113281 5.855469 14.109375 C 5.847656 14.109375 5.839844 14.109375 5.832031 14.109375 C 5.777344 14.089844 5.757812 14.066406 5.730469 14.046875 C 5.703125 14.027344 5.683594 14.007812 5.660156 13.996094 C 5.652344 13.996094 5.660156 13.992188 5.636719 13.984375 C 5.636719 13.984375 5.632812 13.984375 5.628906 13.988281 C 5.617188 13.992188 5.589844 14.007812 5.554688 14.027344 C 5.429688 14.089844 5.347656 14.066406 5.234375 13.976562 C 5.21875 13.960938 5.207031 13.945312 5.195312 13.925781 C 5.1875 13.910156 5.175781 13.886719 5.171875 13.867188 C 5.167969 13.828125 5.171875 13.792969 5.175781 13.765625 C 5.203125 13.664062 5.226562 13.601562 5.222656 13.539062 C 5.222656 13.523438 5.21875 13.511719 5.21875 13.5 C 5.21875 13.496094 5.210938 13.480469 5.210938 13.46875 L 5.203125 13.457031 C 5.203125 13.453125 5.175781 13.40625 5.175781 13.40625 C 5.164062 13.390625 5.152344 13.378906 5.144531 13.367188 C 5.09375 13.320312 5.035156 13.289062 4.960938 13.285156 C 4.816406 13.277344 4.621094 13.371094 4.511719 13.496094 C 4.5 13.507812 4.480469 13.539062 4.464844 13.558594 C 4.457031 13.570312 4.449219 13.589844 4.4375 13.605469 C 4.421875 13.640625 4.414062 13.675781 4.414062 13.71875 C 4.410156 13.761719 4.414062 13.8125 4.421875 13.871094 C 4.425781 13.898438 4.425781 13.933594 4.429688 13.964844 C 4.433594 13.996094 4.425781 14.042969 4.425781 14.082031 C 4.417969 14.125 4.410156 14.144531 4.402344 14.179688 L 4.402344 14.183594 C 4.402344 14.1875 4.394531 14.207031 4.394531 14.207031 C 4.394531 14.210938 4.386719 14.222656 4.386719 14.222656 L 4.371094 14.253906 C 4.363281 14.277344 4.347656 14.296875 4.332031 14.316406 C 4.296875 14.355469 4.25 14.394531 4.199219 14.410156 C 4.152344 14.425781 4.109375 14.433594 4.074219 14.4375 C 4.003906 14.441406 3.964844 14.449219 3.953125 14.457031 C 3.953125 14.460938 3.949219 14.460938 3.949219 14.460938 C 3.949219 14.460938 3.945312 14.464844 3.945312 14.46875 L 3.929688 14.488281 L 3.925781 14.5 C 3.921875 14.511719 3.921875 14.519531 3.917969 14.527344 C 3.902344 14.589844 3.933594 14.671875 3.992188 14.75 C 4.050781 14.828125 4.125 14.898438 4.207031 14.953125 C 4.25 14.984375 4.292969 15.015625 4.339844 15.050781 C 4.363281 15.070312 4.390625 15.089844 4.414062 15.125 C 4.425781 15.132812 4.4375 15.148438 4.445312 15.164062 C 4.488281 15.128906 4.539062 15.101562 4.59375 15.085938 C 4.640625 15.074219 4.6875 15.070312 4.730469 15.074219 C 4.777344 14.9375 4.871094 14.84375 4.953125 14.796875 C 5.050781 14.746094 5.125 14.757812 5.125 14.777344 C 5.132812 14.800781 5.082031 14.828125 5.023438 14.890625 C 4.96875 14.953125 4.90625 15.058594 4.890625 15.183594 L 4.878906 15.265625 L 4.785156 15.261719 C 4.738281 15.261719 4.6875 15.257812 4.644531 15.269531 C 4.5 15.304688 4.460938 15.449219 4.480469 15.558594 C 4.488281 15.617188 4.5 15.65625 4.511719 15.695312 C 4.523438 15.730469 4.523438 15.753906 4.511719 15.761719 C 4.5 15.769531 4.480469 15.761719 4.449219 15.738281 C 4.417969 15.714844 4.378906 15.664062 4.347656 15.597656 C 4.335938 15.566406 4.324219 15.53125 4.320312 15.488281 C 4.308594 15.5 4.296875 15.507812 4.28125 15.519531 C 4.257812 15.539062 4.230469 15.554688 4.207031 15.570312 C 4.199219 15.574219 4.191406 15.574219 4.183594 15.578125 C 4.171875 15.585938 4.160156 15.589844 4.144531 15.597656 C 3.675781 15.765625 3.394531 16.054688 3.449219 16.578125 C 3.46875 16.777344 3.492188 16.980469 3.511719 17.179688 C 3.550781 17.152344 3.597656 17.128906 3.644531 17.113281 C 3.757812 17.074219 3.960938 17.089844 4.054688 17.035156 " fill-opacity="1" fill-rule="nonzero"/></g><g clip-path="url(#3d6be556ef)"><path fill="#762190" d="M 15.6875 18.179688 C 15.605469 18.152344 15.496094 18.101562 15.371094 18.128906 L 15.265625 18.152344 L 15.285156 18.039062 C 15.300781 17.945312 15.28125 17.851562 15.199219 17.785156 C 15.121094 17.714844 14.996094 17.667969 14.863281 17.660156 C 14.742188 17.652344 14.621094 17.675781 14.535156 17.726562 C 14.449219 17.777344 14.414062 17.855469 14.410156 17.941406 L 14.410156 18.039062 L 14.320312 18.019531 C 14.160156 17.988281 14.023438 17.957031 13.925781 17.941406 C 13.832031 17.921875 13.777344 17.902344 13.777344 17.886719 C 13.777344 17.871094 13.832031 17.859375 13.933594 17.851562 C 14.011719 17.84375 14.121094 17.847656 14.257812 17.859375 C 14.261719 17.820312 14.269531 17.785156 14.289062 17.746094 C 14.316406 17.675781 14.371094 17.617188 14.4375 17.574219 C 14.566406 17.492188 14.722656 17.460938 14.875 17.472656 C 15.042969 17.484375 15.210938 17.539062 15.328125 17.65625 C 15.386719 17.714844 15.429688 17.789062 15.445312 17.863281 C 15.453125 17.90625 15.453125 17.945312 15.449219 17.984375 C 15.5 17.992188 15.546875 18.003906 15.585938 18.019531 C 15.648438 18.046875 15.695312 18.082031 15.730469 18.109375 C 15.800781 18.160156 15.835938 18.199219 15.832031 18.210938 C 15.820312 18.226562 15.769531 18.210938 15.6875 18.179688 Z M 5.582031 17.4375 L 5.5 17.574219 L 5.453125 17.402344 C 5.449219 17.378906 5.441406 17.359375 5.4375 17.335938 C 5.429688 17.3125 5.417969 17.296875 5.410156 17.273438 C 5.386719 17.242188 5.371094 17.230469 5.339844 17.230469 C 5.304688 17.234375 5.25 17.253906 5.203125 17.289062 C 5.152344 17.324219 5.101562 17.367188 5.058594 17.414062 C 5.003906 17.476562 4.953125 17.546875 4.929688 17.605469 L 4.871094 17.75 L 4.773438 17.640625 C 4.722656 17.585938 4.609375 17.554688 4.523438 17.550781 C 4.433594 17.546875 4.351562 17.5625 4.296875 17.589844 C 4.246094 17.621094 4.222656 17.664062 4.210938 17.695312 C 4.203125 17.734375 4.195312 17.761719 4.183594 17.761719 C 4.175781 17.761719 4.160156 17.742188 4.148438 17.699219 C 4.136719 17.648438 4.152344 17.5625 4.226562 17.496094 C 4.296875 17.433594 4.402344 17.398438 4.523438 17.390625 C 4.582031 17.386719 4.644531 17.390625 4.710938 17.410156 C 4.742188 17.414062 4.773438 17.425781 4.804688 17.441406 C 4.835938 17.386719 4.875 17.335938 4.917969 17.289062 C 4.96875 17.230469 5.03125 17.175781 5.097656 17.136719 C 5.164062 17.089844 5.242188 17.054688 5.339844 17.054688 C 5.363281 17.054688 5.386719 17.058594 5.410156 17.066406 C 5.4375 17.074219 5.457031 17.085938 5.476562 17.101562 C 5.496094 17.117188 5.515625 17.132812 5.523438 17.148438 C 5.535156 17.167969 5.550781 17.183594 5.558594 17.203125 C 5.5625 17.226562 5.570312 17.246094 5.578125 17.265625 C 5.640625 17.234375 5.707031 17.226562 5.746094 17.230469 C 5.820312 17.234375 5.855469 17.257812 5.855469 17.269531 C 5.851562 17.285156 5.8125 17.289062 5.757812 17.308594 C 5.703125 17.324219 5.625 17.363281 5.582031 17.4375 Z M 25.851562 16.109375 C 25.78125 16.109375 25.707031 16.113281 25.625 16.121094 C 25.53125 16.144531 25.429688 16.195312 25.320312 16.273438 C 25.253906 16.320312 25.191406 16.292969 25.152344 16.246094 C 25.148438 16.246094 25.144531 16.25 25.140625 16.25 C 25.109375 16.269531 25.09375 16.289062 25.078125 16.304688 C 25.074219 16.3125 25.0625 16.324219 25.0625 16.328125 C 25.0625 16.332031 25.058594 16.335938 25.058594 16.335938 C 25.058594 16.34375 25.054688 16.347656 25.058594 16.351562 C 25.058594 16.355469 25.066406 16.378906 25.089844 16.417969 C 25.144531 16.496094 25.125 16.578125 25.144531 16.660156 C 25.175781 16.792969 25.15625 16.75 25.296875 16.804688 C 25.332031 16.820312 25.363281 16.839844 25.390625 16.859375 C 25.429688 16.789062 25.484375 16.734375 25.539062 16.703125 C 25.628906 16.648438 25.714844 16.628906 25.785156 16.621094 C 25.925781 16.605469 26.007812 16.632812 26.003906 16.648438 C 26.003906 16.671875 25.925781 16.683594 25.808594 16.722656 C 25.699219 16.765625 25.523438 16.855469 25.523438 17.019531 L 25.527344 17.21875 L 25.371094 17.078125 C 25.328125 17.035156 25.273438 16.992188 25.230469 16.976562 C 25.207031 16.96875 25.191406 16.972656 25.183594 16.972656 C 25.171875 16.976562 25.160156 16.988281 25.144531 17.011719 C 25.09375 17.085938 25.070312 17.210938 25.054688 17.316406 C 25.035156 17.425781 25.027344 17.527344 25.015625 17.625 L 25.007812 17.695312 L 24.945312 17.699219 C 24.792969 17.699219 24.683594 17.71875 24.613281 17.75 C 24.550781 17.78125 24.507812 17.832031 24.496094 17.816406 C 24.488281 17.8125 24.488281 17.796875 24.496094 17.773438 C 24.5 17.753906 24.523438 17.714844 24.5625 17.679688 C 24.621094 17.621094 24.734375 17.578125 24.859375 17.554688 C 24.859375 17.472656 24.859375 17.386719 24.871094 17.292969 C 24.886719 17.183594 24.898438 17.070312 24.964844 16.941406 C 24.9375 16.941406 24.925781 16.9375 24.910156 16.933594 C 24.859375 16.921875 24.835938 16.917969 24.800781 16.917969 C 24.761719 16.921875 24.691406 16.921875 24.644531 16.921875 C 24.542969 16.921875 24.445312 16.917969 24.355469 16.933594 C 24.046875 16.980469 24.320312 17.105469 24.328125 17.242188 C 24.328125 17.28125 24.316406 17.324219 24.296875 17.34375 C 24.261719 17.398438 24.230469 17.410156 24.203125 17.425781 C 24.175781 17.445312 24.15625 17.449219 24.128906 17.460938 L 24.105469 17.46875 C 24.105469 17.46875 24.101562 17.46875 24.101562 17.46875 L 24.09375 17.46875 C 24.085938 17.472656 24.085938 17.472656 24.074219 17.472656 C 24.054688 17.472656 24.023438 17.476562 24.007812 17.472656 C 23.972656 17.46875 23.941406 17.460938 23.917969 17.449219 C 23.851562 17.421875 23.757812 17.328125 23.691406 17.320312 C 23.660156 17.316406 23.492188 17.386719 23.515625 17.402344 C 23.46875 17.363281 23.398438 17.328125 23.34375 17.316406 C 23.304688 17.308594 23.277344 17.3125 23.257812 17.320312 C 23.277344 17.34375 23.300781 17.371094 23.304688 17.429688 C 23.308594 17.496094 23.277344 17.535156 23.25 17.5625 C 23.195312 17.625 23.113281 17.648438 23.054688 17.652344 C 23.042969 17.652344 23.027344 17.648438 23.015625 17.648438 C 23.339844 17.898438 23.628906 18.152344 23.859375 18.492188 C 23.863281 18.496094 23.867188 18.503906 23.867188 18.507812 C 23.878906 18.507812 23.894531 18.503906 23.910156 18.5 C 24.0625 18.496094 24.195312 18.535156 24.28125 18.570312 C 24.371094 18.609375 24.417969 18.652344 24.410156 18.675781 C 24.394531 18.726562 24.191406 18.691406 23.960938 18.691406 C 23.878906 18.707031 23.769531 18.726562 23.667969 18.777344 C 23.621094 18.800781 23.574219 18.839844 23.570312 18.875 C 23.558594 18.910156 23.585938 18.964844 23.632812 19.019531 L 23.703125 19.109375 L 23.59375 19.144531 C 23.421875 19.199219 23.242188 19.21875 23.027344 19.167969 C 23.003906 19.15625 22.96875 19.148438 22.949219 19.136719 L 22.917969 19.125 L 22.898438 19.117188 C 22.898438 19.113281 22.886719 19.109375 22.886719 19.109375 C 22.886719 19.109375 22.882812 19.105469 22.882812 19.105469 L 22.871094 19.097656 C 22.816406 19.058594 22.78125 19.011719 22.75 18.96875 C 22.71875 18.929688 22.691406 18.890625 22.664062 18.863281 C 22.648438 18.847656 22.632812 18.835938 22.621094 18.828125 C 22.613281 18.824219 22.613281 18.820312 22.601562 18.816406 L 22.566406 18.800781 L 22.546875 18.789062 C 22.546875 18.789062 22.539062 18.789062 22.539062 18.789062 L 22.507812 18.78125 C 22.488281 18.777344 22.464844 18.769531 22.445312 18.769531 C 22.425781 18.769531 22.402344 18.765625 22.386719 18.769531 C 22.367188 18.773438 22.347656 18.777344 22.328125 18.78125 C 22.285156 18.792969 22.242188 18.820312 22.195312 18.847656 C 22.148438 18.875 22.09375 18.90625 22.042969 18.933594 C 21.980469 18.964844 21.925781 18.988281 21.875 19.011719 C 21.824219 19.035156 21.777344 19.058594 21.75 19.085938 C 21.722656 19.109375 21.714844 19.125 21.710938 19.167969 C 21.707031 19.203125 21.714844 19.257812 21.726562 19.308594 L 21.75 19.421875 L 21.640625 19.457031 C 21.554688 19.484375 21.46875 19.492188 21.394531 19.492188 C 21.359375 19.492188 21.320312 19.496094 21.28125 19.492188 C 21.242188 19.488281 21.203125 19.492188 21.164062 19.484375 C 21.003906 19.472656 20.828125 19.425781 20.683594 19.324219 C 20.648438 19.296875 20.613281 19.273438 20.582031 19.238281 C 20.554688 19.207031 20.515625 19.171875 20.492188 19.144531 C 20.445312 19.085938 20.398438 19.023438 20.351562 18.972656 C 20.257812 18.863281 20.152344 18.769531 20.042969 18.71875 C 20.019531 18.703125 19.96875 18.691406 19.929688 18.679688 C 19.90625 18.675781 19.863281 18.664062 19.832031 18.660156 C 19.769531 18.65625 19.714844 18.671875 19.644531 18.699219 C 19.574219 18.730469 19.484375 18.777344 19.386719 18.808594 L 19.308594 18.828125 L 19.296875 18.828125 L 19.285156 18.832031 C 19.28125 18.832031 19.242188 18.835938 19.242188 18.835938 C 19.195312 18.839844 19.144531 18.847656 19.09375 18.839844 C 18.882812 18.824219 18.734375 18.675781 18.542969 18.636719 C 18.402344 18.609375 18.273438 18.691406 18.140625 18.652344 C 18.140625 18.652344 18.125 18.648438 18.125 18.648438 L 18.117188 18.640625 C 18.09375 18.625 18.0625 18.597656 18.050781 18.578125 C 18.042969 18.5625 18.027344 18.546875 18.019531 18.53125 C 18.003906 18.5 17.988281 18.472656 17.976562 18.445312 L 17.941406 18.371094 C 17.929688 18.351562 17.917969 18.328125 17.914062 18.320312 C 17.910156 18.316406 17.910156 18.316406 17.910156 18.3125 L 17.894531 18.296875 L 17.886719 18.285156 C 17.882812 18.28125 17.875 18.277344 17.875 18.277344 L 17.824219 18.242188 C 17.789062 18.226562 17.75 18.207031 17.703125 18.195312 C 17.617188 18.171875 17.511719 18.160156 17.40625 18.144531 C 17.34375 18.132812 17.285156 18.117188 17.242188 18.097656 L 17.207031 18.085938 L 17.164062 18.070312 C 17.140625 18.058594 17.113281 18.046875 17.089844 18.03125 C 16.988281 17.976562 16.910156 17.890625 16.855469 17.832031 L 16.8125 17.789062 L 16.761719 17.746094 C 16.734375 17.726562 16.707031 17.703125 16.675781 17.6875 C 16.558594 17.628906 16.382812 17.648438 16.226562 17.613281 L 16.074219 17.578125 L 16.191406 17.476562 C 16.242188 17.429688 16.28125 17.378906 16.28125 17.34375 C 16.285156 17.304688 16.253906 17.261719 16.207031 17.230469 C 16.207031 17.230469 16.207031 17.226562 16.203125 17.226562 C 16.226562 17.257812 16.230469 17.277344 16.230469 17.28125 C 16.214844 17.292969 16.167969 17.253906 16.074219 17.195312 C 15.984375 17.136719 15.828125 17.082031 15.703125 17.21875 L 15.589844 17.335938 L 15.578125 17.152344 C 15.574219 17.113281 15.566406 17.074219 15.539062 17.039062 C 15.507812 17.007812 15.464844 16.976562 15.417969 16.96875 C 15.410156 16.96875 15.402344 16.964844 15.394531 16.964844 C 15.378906 16.964844 15.359375 16.964844 15.339844 16.964844 L 15.332031 16.964844 L 15.332031 16.957031 L 15.320312 16.96875 C 15.308594 16.976562 15.300781 16.980469 15.285156 16.992188 C 15.261719 17.007812 15.222656 17.039062 15.175781 17.0625 C 15.121094 17.089844 15.046875 17.09375 14.984375 17.078125 L 14.976562 17.074219 L 14.96875 17.074219 C 14.9375 17.054688 14.902344 17.027344 14.894531 17.011719 L 14.871094 16.988281 L 14.859375 16.972656 C 14.859375 16.96875 14.847656 16.960938 14.839844 16.957031 L 14.835938 16.949219 L 14.832031 16.949219 L 14.785156 16.929688 C 14.757812 16.914062 14.71875 16.910156 14.683594 16.902344 C 14.648438 16.898438 14.625 16.890625 14.582031 16.890625 L 14.515625 16.890625 L 14.507812 16.902344 L 14.503906 16.90625 C 14.503906 16.90625 14.484375 16.90625 14.484375 16.90625 C 14.46875 16.90625 14.464844 16.914062 14.453125 16.917969 C 14.445312 16.925781 14.433594 16.933594 14.421875 16.945312 C 14.378906 16.992188 14.328125 17.097656 14.222656 17.171875 L 14.109375 17.253906 L 14.039062 17.136719 C 14 17.070312 13.980469 17.003906 13.964844 16.964844 C 13.960938 16.957031 13.957031 16.949219 13.953125 16.945312 C 13.949219 16.9375 13.945312 16.933594 13.941406 16.933594 C 13.941406 16.925781 13.9375 16.925781 13.9375 16.925781 C 13.933594 16.925781 13.941406 16.921875 13.921875 16.917969 C 13.855469 16.890625 13.738281 16.902344 13.640625 16.925781 C 13.613281 16.929688 13.589844 16.9375 13.566406 16.945312 C 13.554688 16.949219 13.554688 16.949219 13.546875 16.953125 C 13.539062 16.957031 13.539062 16.949219 13.523438 16.964844 L 13.507812 16.976562 C 13.496094 16.988281 13.492188 16.992188 13.488281 17 C 13.484375 17.003906 13.488281 17.003906 13.484375 17.007812 C 13.484375 17.007812 13.484375 17.007812 13.480469 17.011719 C 13.484375 17.023438 13.484375 17.039062 13.492188 17.074219 C 13.5 17.089844 13.507812 17.183594 13.507812 17.199219 L 13.507812 17.21875 C 13.507812 17.21875 13.507812 17.242188 13.507812 17.242188 C 13.507812 17.242188 13.5 17.28125 13.5 17.28125 C 13.488281 17.308594 13.484375 17.332031 13.46875 17.351562 C 13.4375 17.402344 13.414062 17.425781 13.390625 17.449219 L 13.367188 17.472656 L 13.363281 17.488281 C 13.359375 17.496094 13.351562 17.519531 13.339844 17.53125 C 13.332031 17.546875 13.316406 17.558594 13.3125 17.5625 C 13.308594 17.566406 13.296875 17.570312 13.292969 17.574219 C 13.285156 17.582031 13.277344 17.585938 13.269531 17.585938 L 13.257812 17.589844 L 13.238281 17.597656 C 13.210938 17.609375 13.207031 17.609375 13.179688 17.617188 C 13.070312 17.636719 13 17.621094 12.933594 17.617188 C 12.902344 17.617188 12.875 17.617188 12.855469 17.617188 C 12.851562 17.617188 12.855469 17.613281 12.839844 17.617188 L 12.820312 17.625 C 12.792969 17.640625 12.777344 17.652344 12.75 17.671875 C 12.726562 17.691406 12.695312 17.722656 12.636719 17.746094 C 12.609375 17.757812 12.578125 17.761719 12.550781 17.765625 C 12.519531 17.765625 12.496094 17.765625 12.46875 17.761719 C 12.441406 17.761719 12.433594 17.753906 12.417969 17.75 L 12.390625 17.746094 C 12.375 17.742188 12.371094 17.742188 12.371094 17.742188 C 12.371094 17.742188 12.363281 17.738281 12.363281 17.738281 L 12.34375 17.726562 C 12.320312 17.714844 12.292969 17.703125 12.273438 17.6875 L 12.246094 17.664062 L 12.234375 17.648438 L 12.230469 17.644531 C 12.222656 17.640625 12.226562 17.632812 12.210938 17.625 L 12.191406 17.609375 L 12.1875 17.605469 C 12.144531 17.574219 12.015625 17.585938 11.886719 17.585938 C 11.804688 17.585938 11.738281 17.566406 11.679688 17.554688 C 11.625 17.539062 11.574219 17.527344 11.542969 17.527344 C 11.527344 17.527344 11.515625 17.53125 11.503906 17.53125 C 11.492188 17.542969 11.503906 17.527344 11.472656 17.558594 C 11.460938 17.570312 11.453125 17.578125 11.445312 17.59375 C 11.433594 17.609375 11.429688 17.636719 11.386719 17.691406 C 11.359375 17.714844 11.328125 17.730469 11.296875 17.738281 C 11.277344 17.746094 11.273438 17.742188 11.269531 17.746094 L 11.25 17.746094 C 11.195312 17.753906 11.148438 17.742188 11.117188 17.726562 C 11.046875 17.699219 11.003906 17.660156 10.957031 17.621094 C 10.886719 17.546875 10.84375 17.484375 10.8125 17.46875 C 10.800781 17.476562 10.785156 17.484375 10.769531 17.484375 C 10.59375 17.5 10.496094 17.59375 10.378906 17.679688 C 10.378906 17.679688 10.378906 17.679688 10.378906 17.683594 C 10.375 17.691406 10.371094 17.695312 10.367188 17.703125 L 10.351562 17.734375 C 10.328125 17.769531 10.285156 17.78125 10.269531 17.785156 C 10.234375 17.792969 10.191406 17.792969 10.152344 17.792969 C 10.09375 17.800781 10.027344 17.789062 9.972656 17.78125 C 9.792969 17.75 9.628906 17.765625 9.5 17.894531 C 9.523438 17.925781 9.539062 17.957031 9.554688 17.992188 C 9.585938 17.988281 9.613281 17.988281 9.644531 17.988281 C 9.714844 17.992188 9.785156 18.003906 9.851562 18.027344 C 9.917969 18.050781 10 18.09375 10.042969 18.183594 C 10.050781 18.210938 10.0625 18.230469 10.0625 18.257812 C 10.0625 18.269531 10.0625 18.28125 10.0625 18.292969 C 10.128906 18.300781 10.199219 18.304688 10.269531 18.320312 C 10.386719 18.347656 10.484375 18.410156 10.546875 18.476562 L 10.554688 18.484375 C 10.582031 18.523438 10.582031 18.546875 10.585938 18.566406 C 10.585938 18.570312 10.585938 18.570312 10.585938 18.574219 C 10.585938 18.574219 10.589844 18.574219 10.589844 18.574219 C 10.601562 18.574219 10.613281 18.578125 10.628906 18.582031 C 10.652344 18.582031 10.6875 18.585938 10.710938 18.597656 C 10.753906 18.613281 10.789062 18.628906 10.820312 18.640625 C 10.878906 18.664062 10.90625 18.6875 10.90625 18.695312 C 10.902344 18.707031 10.867188 18.710938 10.804688 18.707031 C 10.769531 18.703125 10.730469 18.699219 10.6875 18.691406 C 10.664062 18.6875 10.652344 18.691406 10.621094 18.691406 C 10.597656 18.691406 10.566406 18.699219 10.511719 18.683594 C 10.507812 18.683594 10.503906 18.675781 10.503906 18.675781 C 10.464844 18.652344 10.457031 18.613281 10.453125 18.597656 C 10.449219 18.589844 10.445312 18.582031 10.445312 18.578125 C 10.386719 18.535156 10.320312 18.503906 10.238281 18.496094 C 10.152344 18.484375 10.042969 18.492188 9.914062 18.480469 L 9.78125 18.46875 L 9.839844 18.332031 C 9.851562 18.300781 9.851562 18.277344 9.84375 18.273438 C 9.84375 18.269531 9.820312 18.25 9.777344 18.238281 C 9.703125 18.214844 9.578125 18.214844 9.515625 18.246094 L 9.363281 18.308594 L 9.34375 18.144531 C 9.332031 18.027344 9.1875 17.921875 9 17.898438 L 8.945312 17.894531 L 8.878906 17.898438 L 8.816406 17.910156 C 8.792969 17.917969 8.757812 17.925781 8.742188 17.933594 C 8.730469 17.933594 8.707031 17.945312 8.683594 17.957031 C 8.652344 17.96875 8.621094 17.988281 8.554688 17.996094 C 8.535156 18 8.503906 17.996094 8.476562 17.988281 L 8.460938 17.984375 L 8.457031 17.980469 L 8.445312 17.976562 L 8.441406 17.972656 C 8.4375 17.972656 8.414062 17.957031 8.414062 17.957031 C 8.414062 17.957031 8.410156 17.953125 8.410156 17.953125 C 8.398438 17.945312 8.390625 17.933594 8.378906 17.921875 C 8.367188 17.902344 8.359375 17.890625 8.355469 17.878906 C 8.335938 17.835938 8.332031 17.808594 8.324219 17.796875 C 8.320312 17.792969 8.3125 17.785156 8.308594 17.78125 C 8.296875 17.769531 8.273438 17.757812 8.25 17.746094 C 8.230469 17.734375 8.210938 17.722656 8.183594 17.714844 C 8.160156 17.703125 8.136719 17.691406 8.109375 17.6875 C 8.011719 17.652344 7.898438 17.632812 7.808594 17.625 C 7.789062 17.625 7.773438 17.617188 7.746094 17.621094 L 7.703125 17.625 L 7.6875 17.625 L 7.679688 17.628906 C 7.636719 17.636719 7.605469 17.660156 7.507812 17.679688 C 7.460938 17.683594 7.414062 17.675781 7.378906 17.667969 L 7.339844 17.65625 L 7.296875 17.640625 C 7.273438 17.632812 7.25 17.625 7.230469 17.621094 L 7.171875 17.605469 C 7.15625 17.609375 7.140625 17.605469 7.125 17.601562 C 7.105469 17.601562 7.078125 17.605469 7.054688 17.609375 L 7.035156 17.605469 L 7.027344 17.589844 L 7.003906 17.613281 L 6.949219 17.644531 C 6.929688 17.648438 6.90625 17.660156 6.886719 17.671875 L 6.855469 17.6875 L 6.839844 17.691406 C 6.839844 17.691406 6.835938 17.695312 6.835938 17.699219 C 6.828125 17.707031 6.816406 17.707031 6.804688 17.722656 C 6.792969 17.738281 6.785156 17.746094 6.765625 17.773438 C 6.746094 17.792969 6.726562 17.816406 6.710938 17.828125 L 6.691406 17.847656 L 6.679688 17.855469 C 6.675781 17.859375 6.671875 17.859375 6.671875 17.859375 C 6.660156 17.867188 6.640625 17.875 6.628906 17.882812 C 6.570312 17.902344 6.53125 17.902344 6.496094 17.910156 C 6.460938 17.917969 6.449219 17.925781 6.449219 17.921875 C 6.445312 17.925781 6.445312 17.941406 6.445312 17.960938 L 6.460938 18.054688 L 6.375 18.058594 C 6.15625 18.074219 5.996094 18.042969 5.882812 18.027344 C 5.769531 18.011719 5.710938 17.996094 5.710938 17.980469 C 5.710938 17.964844 5.769531 17.949219 5.886719 17.9375 C 5.980469 17.929688 6.117188 17.929688 6.273438 17.910156 C 6.277344 17.882812 6.28125 17.855469 6.300781 17.828125 C 6.34375 17.761719 6.40625 17.742188 6.445312 17.730469 C 6.492188 17.71875 6.527344 17.710938 6.550781 17.699219 C 6.550781 17.699219 6.550781 17.695312 6.550781 17.695312 L 6.566406 17.679688 C 6.585938 17.667969 6.59375 17.652344 6.605469 17.640625 C 6.609375 17.628906 6.628906 17.605469 6.644531 17.585938 C 6.65625 17.566406 6.6875 17.542969 6.710938 17.519531 C 6.71875 17.515625 6.71875 17.511719 6.734375 17.503906 L 6.75 17.496094 L 6.78125 17.476562 C 6.800781 17.46875 6.820312 17.453125 6.84375 17.445312 C 6.871094 17.433594 6.898438 17.421875 6.921875 17.414062 L 6.9375 17.410156 C 6.921875 17.402344 6.914062 17.394531 6.90625 17.382812 C 6.871094 17.378906 6.839844 17.375 6.792969 17.367188 L 6.707031 17.347656 L 6.722656 17.242188 C 6.730469 17.191406 6.722656 17.160156 6.691406 17.132812 C 6.675781 17.117188 6.648438 17.105469 6.628906 17.097656 C 6.617188 17.089844 6.582031 17.082031 6.574219 17.082031 C 6.5625 17.078125 6.550781 17.078125 6.53125 17.078125 C 6.511719 17.074219 6.488281 17.074219 6.441406 17.0625 C 6.414062 17.050781 6.386719 17.039062 6.359375 17.007812 C 6.332031 16.976562 6.328125 16.949219 6.320312 16.917969 C 6.316406 16.902344 6.320312 16.902344 6.320312 16.894531 L 6.316406 16.875 C 6.316406 16.875 6.320312 16.835938 6.324219 16.8125 C 6.328125 16.796875 6.335938 16.78125 6.335938 16.773438 L 6.347656 16.753906 L 6.359375 16.730469 C 6.386719 16.730469 6.355469 16.660156 6.3125 16.605469 L 6.308594 16.597656 L 6.277344 16.558594 L 6.246094 16.523438 C 6.234375 16.515625 6.226562 16.511719 6.21875 16.503906 C 6.21875 16.5 6.207031 16.496094 6.195312 16.492188 L 6.164062 16.480469 L 6.15625 16.476562 C 6.152344 16.476562 6.148438 16.476562 6.144531 16.476562 L 6.082031 16.480469 C 6.046875 16.484375 6 16.484375 5.984375 16.476562 L 5.957031 16.476562 C 5.957031 16.476562 5.9375 16.46875 5.9375 16.46875 C 5.933594 16.46875 5.925781 16.464844 5.925781 16.464844 L 5.882812 16.445312 C 5.761719 16.382812 5.703125 16.304688 5.640625 16.269531 C 5.625 16.257812 5.617188 16.257812 5.605469 16.25 C 5.605469 16.246094 5.589844 16.242188 5.578125 16.238281 L 5.542969 16.230469 L 5.539062 16.226562 C 5.539062 16.226562 5.539062 16.230469 5.539062 16.230469 L 5.523438 16.226562 L 5.492188 16.222656 C 5.472656 16.21875 5.449219 16.21875 5.429688 16.21875 C 5.328125 16.210938 5.226562 16.222656 5.136719 16.246094 C 5.089844 16.257812 5.042969 16.277344 5.003906 16.292969 L 4.949219 16.320312 C 4.929688 16.324219 4.90625 16.347656 4.882812 16.359375 C 4.828125 16.398438 4.796875 16.460938 4.757812 16.554688 C 4.738281 16.601562 4.71875 16.652344 4.6875 16.707031 C 4.679688 16.730469 4.648438 16.769531 4.621094 16.800781 C 4.605469 16.816406 4.597656 16.824219 4.589844 16.832031 L 4.558594 16.851562 L 4.554688 16.855469 L 4.539062 16.867188 C 4.535156 16.871094 4.53125 16.871094 4.53125 16.871094 L 4.511719 16.878906 C 4.5 16.882812 4.488281 16.890625 4.480469 16.890625 C 4.457031 16.894531 4.4375 16.898438 4.421875 16.898438 C 4.402344 16.898438 4.386719 16.898438 4.378906 16.898438 C 4.378906 16.902344 4.378906 16.902344 4.375 16.90625 C 4.375 16.902344 4.375 16.902344 4.375 16.902344 C 4.375 16.902344 4.371094 16.90625 4.371094 16.90625 L 4.375 16.914062 C 4.375 16.917969 4.371094 16.917969 4.375 16.917969 C 4.375 16.917969 4.375 16.921875 4.375 16.925781 L 4.375 16.957031 C 4.375 16.964844 4.375 16.984375 4.371094 17 C 4.371094 17.007812 4.367188 17.023438 4.363281 17.039062 C 4.359375 17.054688 4.351562 17.070312 4.34375 17.082031 L 4.335938 17.097656 L 4.332031 17.101562 C 4.332031 17.101562 4.316406 17.121094 4.316406 17.121094 L 4.308594 17.128906 L 4.273438 17.160156 C 4.246094 17.175781 4.21875 17.191406 4.195312 17.203125 C 4.089844 17.246094 3.996094 17.253906 3.914062 17.261719 C 3.835938 17.269531 3.761719 17.277344 3.699219 17.292969 C 3.636719 17.308594 3.589844 17.332031 3.550781 17.363281 L 3.527344 17.386719 C 3.566406 17.878906 3.582031 18.375 3.511719 18.859375 C 4.214844 18.964844 4.960938 18.789062 5.667969 18.800781 C 6.394531 18.8125 7.117188 18.867188 7.84375 18.90625 C 9.269531 18.980469 10.6875 19.007812 12.113281 19.148438 C 12.816406 19.21875 13.523438 19.296875 14.230469 19.3125 C 14.933594 19.324219 15.636719 19.304688 16.332031 19.394531 C 17.738281 19.574219 19.117188 19.84375 20.535156 19.871094 C 21.335938 19.890625 22.136719 19.886719 22.929688 19.816406 C 23.511719 19.765625 24.085938 19.640625 24.667969 19.601562 C 25.109375 19.570312 25.5625 19.578125 25.996094 19.496094 C 26.320312 19.4375 26.414062 19.335938 26.476562 19.023438 C 26.589844 18.476562 26.613281 16.261719 25.851562 16.109375 " fill-opacity="1" fill-rule="nonzero"/></g><path fill="#762190" d="M 10.046875 13.554688 C 10.046875 13.554688 10.050781 13.554688 10.050781 13.554688 C 10.074219 13.5625 10.097656 13.566406 10.121094 13.566406 C 10.203125 13.566406 10.28125 13.523438 10.324219 13.453125 C 10.382812 13.355469 10.378906 13.265625 10.308594 13.214844 C 10.238281 13.160156 10.144531 13.152344 10.054688 13.199219 C 9.96875 13.246094 9.910156 13.328125 9.917969 13.40625 C 9.917969 13.4375 9.9375 13.515625 10.046875 13.554688 " fill-opacity="1" fill-rule="nonzero"/><path fill="#762190" d="M 8.601562 11.753906 C 8.601562 11.753906 8.605469 11.753906 8.605469 11.753906 C 8.617188 11.757812 8.628906 11.757812 8.640625 11.757812 C 8.757812 11.757812 8.878906 11.671875 8.910156 11.558594 C 8.925781 11.492188 8.914062 11.417969 8.875 11.363281 C 8.835938 11.3125 8.777344 11.28125 8.714844 11.277344 C 8.605469 11.269531 8.464844 11.320312 8.429688 11.445312 C 8.40625 11.523438 8.410156 11.59375 8.445312 11.648438 C 8.476562 11.703125 8.527344 11.738281 8.601562 11.753906 " fill-opacity="1" fill-rule="nonzero"/><path fill="#762190" d="M 6.175781 10.890625 C 6.179688 10.890625 6.183594 10.890625 6.183594 10.890625 C 6.273438 10.882812 6.347656 10.820312 6.363281 10.730469 C 6.378906 10.644531 6.339844 10.566406 6.265625 10.535156 C 6.203125 10.507812 6.128906 10.523438 6.070312 10.582031 C 6.007812 10.640625 5.980469 10.730469 6.007812 10.796875 C 6.023438 10.824219 6.0625 10.890625 6.175781 10.890625 " fill-opacity="1" fill-rule="nonzero"/></svg>