<svg xmlns="http://www.w3.org/2000/svg" xmlns:xlink="http://www.w3.org/1999/xlink" width="40" zoomAndPan="magnify" viewBox="0 0 30 30.000001" height="40" preserveAspectRatio="xMidYMid meet" version="1.0"><defs><clipPath id="8cc59aa045"><path d="M 3.472656 4.882812 L 26.699219 4.882812 L 26.699219 24.480469 L 3.472656 24.480469 Z M 3.472656 4.882812 " clip-rule="nonzero"/></clipPath></defs><g clip-path="url(#8cc59aa045)"><path fill="#762190" d="M 18.898438 4.886719 C 18.757812 4.882812 18.589844 4.957031 18.453125 5.097656 L 13.839844 9.773438 L 10.816406 6.710938 C 10.667969 6.558594 10.429688 6.558594 10.277344 6.710938 C 10.128906 6.859375 10.128906 7.105469 10.277344 7.257812 L 13.113281 10.128906 L 5.097656 10.128906 C 4.203125 10.128906 3.484375 10.859375 3.484375 11.769531 L 3.484375 22.84375 C 3.484375 23.75 4.203125 24.480469 5.097656 24.480469 L 25.070312 24.480469 C 25.964844 24.480469 26.6875 23.75 26.6875 22.84375 L 26.6875 11.769531 C 26.6875 10.859375 25.964844 10.128906 25.070312 10.128906 L 14.566406 10.128906 L 18.992188 5.644531 C 19.210938 5.421875 19.269531 5.121094 19.117188 4.96875 C 19.0625 4.914062 18.984375 4.886719 18.898438 4.886719 Z M 6.90625 11.757812 L 19.503906 11.757812 C 20.523438 11.757812 21.339844 12.589844 21.339844 13.621094 L 21.339844 20.992188 C 21.339844 22.023438 20.523438 22.851562 19.503906 22.851562 L 6.90625 22.851562 C 5.886719 22.851562 5.070312 22.023438 5.070312 20.992188 L 5.070312 13.621094 C 5.070312 12.589844 5.886719 11.757812 6.90625 11.757812 Z M 23.808594 14.902344 C 23.949219 14.902344 24.082031 14.925781 24.210938 14.980469 C 24.34375 15.035156 24.457031 15.113281 24.554688 15.214844 C 24.65625 15.316406 24.730469 15.429688 24.785156 15.5625 C 24.839844 15.695312 24.867188 15.832031 24.867188 15.972656 C 24.867188 16.113281 24.839844 16.25 24.785156 16.382812 C 24.730469 16.515625 24.65625 16.628906 24.554688 16.730469 C 24.457031 16.832031 24.34375 16.90625 24.210938 16.960938 C 24.082031 17.015625 23.949219 17.042969 23.808594 17.042969 C 23.667969 17.042969 23.53125 17.015625 23.402344 16.960938 C 23.273438 16.90625 23.160156 16.832031 23.058594 16.730469 C 22.960938 16.628906 22.886719 16.515625 22.832031 16.382812 C 22.777344 16.25 22.75 16.113281 22.75 15.972656 C 22.75 15.832031 22.777344 15.695312 22.832031 15.5625 C 22.886719 15.429688 22.960938 15.316406 23.058594 15.214844 C 23.160156 15.113281 23.273438 15.035156 23.402344 14.980469 C 23.53125 14.925781 23.667969 14.902344 23.808594 14.902344 Z M 23.808594 17.566406 C 23.949219 17.566406 24.082031 17.59375 24.210938 17.648438 C 24.34375 17.703125 24.457031 17.78125 24.554688 17.882812 C 24.65625 17.980469 24.730469 18.097656 24.785156 18.230469 C 24.839844 18.359375 24.867188 18.496094 24.867188 18.640625 C 24.867188 18.78125 24.839844 18.917969 24.785156 19.050781 C 24.730469 19.179688 24.65625 19.296875 24.554688 19.398438 C 24.457031 19.496094 24.34375 19.574219 24.210938 19.628906 C 24.082031 19.683594 23.949219 19.710938 23.808594 19.710938 C 23.667969 19.710938 23.53125 19.683594 23.402344 19.628906 C 23.273438 19.574219 23.160156 19.496094 23.058594 19.398438 C 22.960938 19.296875 22.886719 19.179688 22.832031 19.050781 C 22.777344 18.917969 22.75 18.78125 22.75 18.640625 C 22.75 18.496094 22.777344 18.359375 22.832031 18.230469 C 22.886719 18.097656 22.960938 17.980469 23.058594 17.882812 C 23.160156 17.78125 23.273438 17.703125 23.402344 17.648438 C 23.53125 17.59375 23.667969 17.566406 23.808594 17.566406 Z M 23.808594 17.566406 " fill-opacity="1" fill-rule="nonzero"/></g></svg>